{
.appVersion = "3260";
.formatVersion = 3;
DisplayStrings = (
"We/l.cv01 come to The Center",
"/l.cv01"
);
axes = (
{
name = Weight;
tag = wght;
},
{
name = Serif;
tag = srif;
}
);
date = "2021-10-05 23:35:06 +0000";
familyName = "Star Rail Neue";
featurePrefixes = (
{
automatic = 1;
code = "languagesystem DFLT dflt;
";
name = Languagesystems;
}
);
features = (
{
automatic = 1;
code = "";
tag = kern;
},
{
automatic = 1;
code = "sub l by l.cv01;
";
tag = cv01;
}
);
fontMaster = (
{
axesValues = (
50,
0
);
customParameters = (
{
name = "Master Icon Glyph Name";
value = B;
}
);
iconName = Light;
id = m01;
metricValues = (
{
over = 16;
pos = 750;
},
{
pos = 700;
},
{
pos = 480;
},
{
},
{
over = -16;
pos = -200;
}
);
name = Thin;
},
{
axesValues = (
150,
0
);
customParameters = (
{
name = "Master Icon Glyph Name";
value = B;
}
);
iconName = Bold;
id = "5DCAC9C2-0545-46AC-AFFE-31028D6C40EF";
metricValues = (
{
over = 16;
pos = 750;
},
{
pos = 700;
},
{
pos = 480;
},
{
},
{
over = -16;
pos = -200;
}
);
name = Bold;
}
);
glyphs = (
{
glyphname = A;
kernLeft = "upper-hook";
kernRight = A;
lastChange = "2023-05-27 14:06:39 +0000";
layers = (
{
layerId = m01;
shapes = (
{
closed = 1;
nodes = (
(70,320,l),
(260,150,l),
(260,0,l),
(280,0,l),
(280,150,l),
(470,320,l),
(470,700,l),
(450,700,l),
(450,330,l),
(270,170,l),
(90,330,l),
(90,700,l),
(70,700,l)
);
},
{
pos = (-60,0);
ref = "common-hook";
}
);
width = 530;
},
{
layerId = "5DCAC9C2-0545-46AC-AFFE-31028D6C40EF";
shapes = (
{
closed = 1;
nodes = (
(60,310,l),
(250,130,l),
(250,0,l),
(350,0,l),
(350,130,l),
(540,310,l),
(540,700,l),
(440,700,l),
(440,340,l),
(300,210,l),
(160,340,l),
(160,700,l),
(60,700,l)
);
},
{
pos = (-130,0);
ref = "common-hook";
}
);
width = 590;
},
{
associatedMasterId = m01;
attr = {
axisRules = (
{
},
{
max = 1;
min = 0.5;
}
);
};
layerId = "84CF1C4A-0357-4750-9993-09EC5EDB9494";
name = "23年5月1日 13:00";
shapes = (
{
closed = 1;
nodes = (
(70,320,l),
(260,150,l),
(260,0,l),
(280,0,l),
(280,150,l),
(470,320,l),
(470,700,l),
(450,700,l),
(450,330,l),
(270,170,l),
(90,330,l),
(90,700,l),
(70,700,l)
);
},
{
pos = (-60,0);
ref = "common-hook";
},
{
pos = (270,0);
ref = "serif-bottom";
},
{
pos = (460,700);
ref = "serif-top";
},
{
pos = (110,700);
ref = "serif-top";
}
);
width = 530;
},
{
associatedMasterId = "5DCAC9C2-0545-46AC-AFFE-31028D6C40EF";
attr = {
axisRules = (
{
},
{
max = 1;
min = 0.5;
}
);
};
layerId = "F0D522BE-D2A2-4168-9942-C67A1C27AE0C";
name = "23年5月1日 13:00";
shapes = (
{
closed = 1;
nodes = (
(60,310,l),
(250,130,l),
(250,0,l),
(350,0,l),
(350,130,l),
(540,310,l),
(540,700,l),
(440,700,l),
(440,340,l),
(300,210,l),
(160,340,l),
(160,700,l),
(60,700,l)
);
},
{
pos = (-130,0);
ref = "common-hook";
},
{
pos = (300,0);
ref = "serif-bottom";
},
{
pos = (490,700);
ref = "serif-top";
},
{
pos = (140,700);
ref = "serif-top";
}
);
width = 590;
}
);
unicode = 65;
},
{
glyphname = B;
lastChange = "2023-06-28 21:08:09 +0000";
layers = (
{
layerId = m01;
shapes = (
{
closed = 1;
nodes = (
(70,200,l),
(90,200,l),
(90,580,l),
(70,580,l)
);
},
{
closed = 1;
nodes = (
(91,660,o),
(100,669,o),
(100,680,cs),
(100,691,o),
(91,700,o),
(80,700,cs),
(69,700,o),
(60,691,o),
(60,680,cs),
(60,669,o),
(69,660,o),
(80,660,cs)
);
},
{
closed = 1;
nodes = (
(220,700,o),
(170,640,o),
(170,640,c),
(182,624,l),
(182,624,o),
(230,680,o),
(300,680,cs),
(360,680,o),
(400,640,o),
(400,580,cs),
(400,480,o),
(338,418,o),
(190,448,cs),
(80,470,l),
(80,450,l),
(190,428,ls),
(338,398,o),
(420,460,o),
(420,580,cs),
(420,650,o),
(370,700,o),
(300,700,cs)
);
},
{
closed = 1;
nodes = (
(400,-10,o),
(470,70,o),
(470,205,cs),
(470,340,o),
(367,403,o),
(247,431,cs),
(80,470,l),
(80,450,l),
(246,412,ls),
(357,387,o),
(450,320,o),
(450,205,cs),
(450,80,o),
(390,10,o),
(280,10,cs),
(159,10,o),
(115,101,o),
(115,101,c),
(100,90,l),
(100,90,o),
(150,-10,o),
(280,-10,cs)
);
}
);
width = 500;
},
{
layerId = "5DCAC9C2-0545-46AC-AFFE-31028D6C40EF";
shapes = (
{
closed = 1;
nodes = (
(50,190,l),
(150,190,l),
(150,550,l),
(50,550,l)
);
},
{
closed = 1;
nodes = (
(128,605,o),
(150,627,o),
(150,655,cs),
(150,683,o),
(128,705,o),
(100,705,cs),
(72,705,o),
(50,683,o),
(50,655,cs),
(50,627,o),
(72,605,o),
(100,605,cs)
);
},
{
closed = 1;
nodes = (
(256,700,o),
(208,671,o),
(184,649,c),
(245,569,l),
(268,587,o),
(292,600,o),
(320,600,cs),
(353,600,o),
(380,570,o),
(380,530,cs),
(380,480,o),
(339,432,o),
(240,452,cs),
(100,480,l),
(100,380,l),
(240,352,ls),
(339,332,o),
(480,382,o),
(480,530,cs),
(480,643,o),
(410,700,o),
(320,700,cs)
);
},
{
closed = 1;
nodes = (
(390,-10,o),
(500,70,o),
(500,220,cs),
(500,360,o),
(387,413,o),
(267,441,cs),
(100,480,l),
(100,380,l),
(266,342,ls),
(358,321,o),
(400,280,o),
(400,220,cs),
(400,140,o),
(350,90,o),
(270,90,cs),
(210,90,o),
(174,125,o),
(159,159,c),
(75,94,l),
(97,57,o),
(160,-10,o),
(270,-10,cs)
);
}
);
width = 525;
},
{
associatedMasterId = m01;
attr = {
axisRules = (
{
},
{
max = 1;
min = 0.5;
}
);
};
layerId = "1042183F-020A-4C29-B2C2-5759284306A2";
name = "23年5月12日 10:14";
shapes = (
{
closed = 1;
nodes = (
(70,200,l),
(90,200,l),
(90,580,l),
(70,580,l)
);
},
{
closed = 1;
nodes = (
(91,660,o),
(100,669,o),
(100,680,cs),
(100,691,o),
(91,700,o),
(80,700,cs),
(69,700,o),
(60,691,o),
(60,680,cs),
(60,669,o),
(69,660,o),
(80,660,cs)
);
},
{
closed = 1;
nodes = (
(220,700,o),
(170,640,o),
(170,640,c),
(182,624,l),
(182,624,o),
(230,680,o),
(300,680,cs),
(360,680,o),
(400,640,o),
(400,580,cs),
(400,480,o),
(338,418,o),
(190,448,cs),
(80,470,l),
(80,450,l),
(190,428,ls),
(338,398,o),
(420,460,o),
(420,580,cs),
(420,650,o),
(370,700,o),
(300,700,cs)
);
},
{
closed = 1;
nodes = (
(400,-10,o),
(470,70,o),
(470,205,cs),
(470,340,o),
(367,403,o),
(247,431,cs),
(80,470,l),
(80,450,l),
(246,412,ls),
(357,387,o),
(450,320,o),
(450,205,cs),
(450,80,o),
(390,10,o),
(280,10,cs),
(159,10,o),
(115,101,o),
(115,101,c),
(100,90,l),
(100,90,o),
(150,-10,o),
(280,-10,cs)
);
},
{
pos = (80,200);
ref = "serif-bottom";
},
{
pos = (80,580);
ref = "serif-top";
}
);
width = 500;
},
{
associatedMasterId = "5DCAC9C2-0545-46AC-AFFE-31028D6C40EF";
attr = {
axisRules = (
{
},
{
max = 1;
min = 0.5;
}
);
};
layerId = "689FB0B4-41D3-4FDB-A455-9252E40CCC62";
name = "23年5月12日 10:14";
shapes = (
{
closed = 1;
nodes = (
(50,190,l),
(150,190,l),
(150,550,l),
(50,550,l)
);
},
{
closed = 1;
nodes = (
(128,605,o),
(150,627,o),
(150,655,cs),
(150,683,o),
(128,705,o),
(100,705,cs),
(72,705,o),
(50,683,o),
(50,655,cs),
(50,627,o),
(72,605,o),
(100,605,cs)
);
},
{
closed = 1;
nodes = (
(256,700,o),
(208,671,o),
(184,649,c),
(245,569,l),
(268,587,o),
(292,600,o),
(320,600,cs),
(353,600,o),
(380,570,o),
(380,530,cs),
(380,480,o),
(339,432,o),
(240,452,cs),
(100,480,l),
(100,380,l),
(240,352,ls),
(339,332,o),
(480,382,o),
(480,530,cs),
(480,643,o),
(410,700,o),
(320,700,cs)
);
},
{
closed = 1;
nodes = (
(390,-10,o),
(500,70,o),
(500,220,cs),
(500,360,o),
(387,413,o),
(267,441,cs),
(100,480,l),
(100,380,l),
(266,342,ls),
(358,321,o),
(400,280,o),
(400,220,cs),
(400,140,o),
(350,90,o),
(270,90,cs),
(210,90,o),
(174,125,o),
(159,159,c),
(75,94,l),
(97,57,o),
(160,-10,o),
(270,-10,cs)
);
},
{
pos = (100,190);
ref = "serif-bottom";
},
{
pos = (100,550);
ref = "serif-top";
}
);
width = 525;
}
);
unicode = 66;
},
{
glyphname = C;
lastChange = "2023-05-27 14:00:58 +0000";
layers = (
{
layerId = m01;
shapes = (
{
closed = 1;
nodes = (
(60,0,l),
(80,0,l),
(80,700,l),
(60,700,l)
);
},
{
closed = 1;
nodes = (
(310,680,o),
(540,560,o),
(540,170,c),
(560,170,l),
(560,580,o),
(320,700,o),
(80,700,c),
(80,680,l)
);
},
{
closed = 1;
nodes = (
(561,0,o),
(570,9,o),
(570,20,cs),
(570,31,o),
(561,40,o),
(550,40,cs),
(539,40,o),
(530,31,o),
(530,20,cs),
(530,9,o),
(539,0,o),
(550,0,cs)
);
}
);
width = 600;
},
{
layerId = "5DCAC9C2-0545-46AC-AFFE-31028D6C40EF";
shapes = (
{
closed = 1;
nodes = (
(50,0,l),
(150,0,l),
(150,700,l),
(50,700,l)
);
},
{
closed = 1;
nodes = (
(350,600,o),
(500,510,o),
(500,150,c),
(600,150,l),
(600,570,o),
(400,700,o),
(150,700,c),
(150,600,l)
);
},
{
closed = 1;
nodes = (
(578,-5,o),
(600,17,o),
(600,45,cs),
(600,73,o),
(578,95,o),
(550,95,cs),
(522,95,o),
(500,73,o),
(500,45,cs),
(500,17,o),
(522,-5,o),
(550,-5,cs)
);
}
);
width = 625;
},
{
associatedMasterId = m01;
attr = {
axisRules = (
{
},
{
max = 1;
min = 0.5;
}
);
};
layerId = "741E224C-FD3D-44ED-A54F-3A3BD7733865";
name = "23年5月1日 13:03";
shapes = (
{
closed = 1;
nodes = (
(60,0,l),
(80,0,l),
(80,700,l),
(60,700,l)
);
},
{
closed = 1;
nodes = (
(310,680,o),
(540,560,o),
(540,170,c),
(560,170,l),
(560,580,o),
(320,700,o),
(80,700,c),
(80,680,l)
);
},
{
closed = 1;
nodes = (
(561,0,o),
(570,9,o),
(570,20,cs),
(570,31,o),
(561,40,o),
(550,40,cs),
(539,40,o),
(530,31,o),
(530,20,cs),
(530,9,o),
(539,0,o),
(550,0,cs)
);
},
{
pos = (70,0);
ref = "serif-bottom";
},
{
pos = (550,170);
ref = "serif-bottom";
}
);
width = 600;
},
{
associatedMasterId = "5DCAC9C2-0545-46AC-AFFE-31028D6C40EF";
attr = {
axisRules = (
{
},
{
max = 1;
min = 0.5;
}
);
};
layerId = "46EA2D93-2E7D-48C4-9012-81DEAB9B60A1";
name = "23年5月1日 13:03";
shapes = (
{
closed = 1;
nodes = (
(50,0,l),
(150,0,l),
(150,700,l),
(50,700,l)
);
},
{
closed = 1;
nodes = (
(350,600,o),
(500,510,o),
(500,150,c),
(600,150,l),
(600,570,o),
(400,700,o),
(150,700,c),
(150,600,l)
);
},
{
closed = 1;
nodes = (
(578,-5,o),
(600,17,o),
(600,45,cs),
(600,73,o),
(578,95,o),
(550,95,cs),
(522,95,o),
(500,73,o),
(500,45,cs),
(500,17,o),
(522,-5,o),
(550,-5,cs)
);
},
{
pos = (100,0);
ref = "serif-bottom";
},
{
pos = (550,150);
ref = "serif-bottom";
}
);
width = 630;
}
);
unicode = 67;
},
{
glyphname = D;
lastChange = "2023-05-27 15:16:41 +0000";
layers = (
{
layerId = m01;
shapes = (
{
closed = 1;
nodes = (
(170,340,l),
(170,360,l),
(80,360,l),
(80,680,l),
(540,680,l),
(540,430,l),
(560,430,l),
(560,700,l),
(60,700,l),
(60,340,l)
);
},
{
pos = (120,-120);
ref = "common-loop";
}
);
width = 620;
},
{
layerId = "5DCAC9C2-0545-46AC-AFFE-31028D6C40EF";
shapes = (
{
closed = 1;
nodes = (
(180,270,l),
(180,370,l),
(150,370,l),
(150,600,l),
(530,600,l),
(530,410,l),
(630,410,l),
(630,700,l),
(50,700,l),
(50,270,l)
);
},
{
pos = (130,-110);
ref = "common-loop";
}
);
width = 680;
},
{
associatedMasterId = m01;
attr = {
axisRules = (
{
},
{
max = 1;
min = 0.5;
}
);
};
layerId = "F1F94D5D-B018-4490-9276-3695D2D0FADF";
name = "23年5月1日 13:12";
shapes = (
{
closed = 1;
nodes = (
(170,340,l),
(170,360,l),
(80,360,l),
(80,680,l),
(540,680,l),
(540,430,l),
(560,430,l),
(560,700,l),
(60,700,l),
(60,340,l)
);
},
{
pos = (120,-120);
ref = "common-loop";
},
{
pos = (550,430);
ref = "serif-bottom";
}
);
width = 620;
},
{
associatedMasterId = "5DCAC9C2-0545-46AC-AFFE-31028D6C40EF";
attr = {
axisRules = (
{
},
{
max = 1;
min = 0.5;
}
);
};
layerId = "4772766E-756C-4185-989C-FAB3A72A0DC4";
name = "23年5月1日 13:12";
shapes = (
{
closed = 1;
nodes = (
(180,270,l),
(180,370,l),
(150,370,l),
(150,600,l),
(530,600,l),
(530,410,l),
(630,410,l),
(630,700,l),
(50,700,l),
(50,270,l)
);
},
{
pos = (130,-110);
ref = "common-loop";
},
{
pos = (580,410);
ref = "serif-bottom";
}
);
width = 680;
}
);
unicode = 68;
},
{
glyphname = E;
lastChange = "2023-05-27 15:18:14 +0000";
layers = (
{
layerId = m01;
shapes = (
{
ref = C;
},
{
closed = 1;
nodes = (
(540,170,l),
(560,170,l),
(560,700,l),
(540,700,l)
);
}
);
width = 630;
},
{
layerId = "5DCAC9C2-0545-46AC-AFFE-31028D6C40EF";
shapes = (
{
ref = C;
},
{
closed = 1;
nodes = (
(500,150,l),
(600,150,l),
(600,700,l),
(500,700,l)
);
}
);
width = 650;
},
{
associatedMasterId = m01;
attr = {
axisRules = (
{
},
{
max = 1;
min = 0.5;
}
);
};
layerId = "651034A4-192B-451B-8CCA-4857700FA290";
name = "23年5月12日 10:55";
shapes = (
{
ref = C;
},
{
closed = 1;
nodes = (
(540,170,l),
(560,170,l),
(560,700,l),
(540,700,l)
);
},
{
pos = (550,700);
ref = "serif-top";
}
);
width = 630;
},
{
associatedMasterId = "5DCAC9C2-0545-46AC-AFFE-31028D6C40EF";
attr = {
axisRules = (
{
},
{
max = 1;
min = 0.5;
}
);
};
layerId = "9C5E4B56-DE88-4721-BD6B-6C3B26A983F0";
name = "23年5月12日 10:55";
shapes = (
{
ref = C;
},
{
closed = 1;
nodes = (
(500,150,l),
(600,150,l),
(600,700,l),
(500,700,l)
);
},
{
pos = (550,700);
ref = "serif-top";
}
);
width = 650;
}
);
unicode = 69;
},
{
glyphname = F;
kernLeft = "upper-hook";
lastChange = "2023-05-27 18:48:31 +0000";
layers = (
{
layerId = m01;
shapes = (
{
closed = 1;
nodes = (
(490,680,l),
(490,700,l),
(70,700,l),
(70,680,l)
);
},
{
pos = (40,-10);
ref = "common-hook3";
},
{
pos = (-60,0);
ref = "common-hook";
},
{
closed = 1;
nodes = (
(250,430,l),
(250,690,l),
(230,690,l),
(230,430,l)
);
},
{
closed = 1;
nodes = (
(370,130,l),
(390,130,l),
(390,430,l),
(370,430,l)
);
}
);
vertWidth = 0;
width = 520;
},
{
layerId = "5DCAC9C2-0545-46AC-AFFE-31028D6C40EF";
shapes = (
{
closed = 1;
nodes = (
(480,600,l),
(480,700,l),
(60,700,l),
(60,600,l)
);
},
{
pos = (0,-10);
ref = "common-hook3";
},
{
pos = (-130,0);
ref = "common-hook";
},
{
closed = 1;
nodes = (
(290,400,l),
(290,650,l),
(190,650,l),
(190,400,l)
);
},
{
closed = 1;
nodes = (
(320,190,l),
(420,190,l),
(420,400,l),
(320,400,l)
);
}
);
width = 505;
},
{
associatedMasterId = m01;
attr = {
axisRules = (
{
},
{
max = 1;
min = 0.5;
}
);
};
layerId = "4BF84717-CBD7-442B-B74D-E06D3AD805E8";
name = "23年5月1日 13:18";
shapes = (
{
closed = 1;
nodes = (
(490,680,l),
(490,700,l),
(70,700,l),
(70,680,l)
);
},
{
pos = (40,-10);
ref = "common-hook3";
},
{
pos = (-60,0);
ref = "common-hook";
},
{
closed = 1;
nodes = (
(250,430,l),
(250,690,l),
(230,690,l),
(230,430,l)
);
},
{
closed = 1;
nodes = (
(370,130,l),
(390,130,l),
(390,430,l),
(370,430,l)
);
},
{
pos = (380,420);
ref = "serif-bottom";
},
{
pos = (240,440);
ref = "serif-top";
}
);
vertWidth = 0;
width = 520;
},
{
associatedMasterId = "5DCAC9C2-0545-46AC-AFFE-31028D6C40EF";
attr = {
axisRules = (
{
},
{
max = 1;
min = 0.5;
}
);
};
layerId = "BED82843-D9E5-4B79-8E69-3CEFD08994F7";
name = "23年5月1日 13:18";
shapes = (
{
closed = 1;
nodes = (
(480,600,l),
(480,700,l),
(60,700,l),
(60,600,l)
);
},
{
pos = (0,-10);
ref = "common-hook3";
},
{
pos = (-130,0);
ref = "common-hook";
},
{
closed = 1;
nodes = (
(290,420,l),
(290,650,l),
(190,650,l),
(190,420,l)
);
},
{
closed = 1;
nodes = (
(320,190,l),
(420,190,l),
(420,380,l),
(320,380,l)
);
},
{
pos = (370,330);
ref = "serif-bottom";
},
{
pos = (240,470);
ref = "serif-top";
}
);
width = 505;
}
);
unicode = 70;
},
{
glyphname = G;
lastChange = "2023-05-25 09:50:29 +0000";
layers = (
{
layerId = m01;
shapes = (
{
ref = H;
},
{
closed = 1;
nodes = (
(510,10,l),
(530,10,l),
(530,420,l),
(510,420,l)
);
}
);
width = 590;
},
{
layerId = "5DCAC9C2-0545-46AC-AFFE-31028D6C40EF";
shapes = (
{
ref = H;
},
{
closed = 1;
nodes = (
(515,50,l),
(615,50,l),
(615,420,l),
(515,420,l)
);
}
);
width = 665;
}
);
unicode = 71;
},
{
glyphname = H;
lastChange = "2023-05-25 09:47:54 +0000";
layers = (
{
layerId = m01;
shapes = (
{
pos = (-20,0);
ref = "common-stand";
},
{
pos = (120,0);
ref = "common-hook";
},
{
closed = 1;
nodes = (
(40,0,l),
(530,0,l),
(530,20,l),
(40,20,l)
);
}
);
width = 590;
},
{
layerId = "5DCAC9C2-0545-46AC-AFFE-31028D6C40EF";
shapes = (
{
pos = (-25,0);
ref = "common-stand";
},
{
pos = (95,0);
ref = "common-hook";
},
{
closed = 1;
nodes = (
(75,0,l),
(615,0,l),
(615,100,l),
(75,100,l)
);
}
);
width = 665;
}
);
unicode = 72;
},
{
glyphname = I;
lastChange = "2023-05-27 18:49:40 +0000";
layers = (
{
layerId = m01;
shapes = (
{
closed = 1;
nodes = (
(310,130,l),
(330,130,l),
(330,700,l),
(310,700,l)
);
},
{
closed = 1;
nodes = (
(120,390,l),
(120,370,l),
(320,440,l),
(320,460,l)
);
},
{
pos = (-20,-10);
ref = "common-hook3";
}
);
width = 390;
},
{
layerId = "5DCAC9C2-0545-46AC-AFFE-31028D6C40EF";
shapes = (
{
closed = 1;
nodes = (
(295,190,l),
(395,190,l),
(395,700,l),
(295,700,l)
);
},
{
closed = 1;
nodes = (
(125,420,l),
(125,320,l),
(345,400,l),
(345,500,l)
);
},
{
pos = (-25,-10);
ref = "common-hook3";
}
);
width = 445;
},
{
associatedMasterId = m01;
attr = {
axisRules = (
{
},
{
max = 1;
min = 0.5;
}
);
};
layerId = "9B098F86-5AAE-4FF4-B54D-C44FD0242FA5";
name = "23年5月8日 11:46";
shapes = (
{
closed = 1;
nodes = (
(310,130,l),
(330,130,l),
(330,700,l),
(310,700,l)
);
},
{
closed = 1;
nodes = (
(120,390,l),
(120,370,l),
(320,440,l),
(320,460,l)
);
},
{
pos = (-20,-10);
ref = "common-hook3";
},
{
pos = (320,700);
ref = "serif-top";
}
);
width = 390;
},
{
associatedMasterId = "5DCAC9C2-0545-46AC-AFFE-31028D6C40EF";
attr = {
axisRules = (
{
},
{
max = 1;
min = 0.5;
}
);
};
layerId = "93A88B9F-3B8A-4D2D-8F12-A1D0FCD6C1BD";
name = "23年5月8日 11:46";
shapes = (
{
closed = 1;
nodes = (
(295,190,l),
(395,190,l),
(395,700,l),
(295,700,l)
);
},
{
closed = 1;
nodes = (
(125,420,l),
(125,320,l),
(345,400,l),
(345,500,l)
);
},
{
pos = (-25,-10);
ref = "common-hook3";
},
{
pos = (345,700);
ref = "serif-top";
}
);
width = 445;
}
);
unicode = 73;
},
{
glyphname = J;
lastChange = "2023-05-27 18:52:26 +0000";
layers = (
{
layerId = m01;
shapes = (
{
closed = 1;
nodes = (
(560,0,l),
(560,20,l),
(80,20,l),
(80,700,l),
(60,700,l),
(60,0,l)
);
},
{
closed = 1;
nodes = (
(490,400,o),
(540,440,o),
(540,540,cs),
(540,650,o),
(460,700,o),
(340,700,cs),
(220,700,o),
(104,605,o),
(64,505,c),
(80,490,l),
(120,590,o),
(230,680,o),
(340,680,cs),
(450,680,o),
(520,630,o),
(520,540,cs),
(520,450,o),
(470,420,o),
(390,420,c),
(390,400,l)
);
}
);
width = 620;
},
{
layerId = "5DCAC9C2-0545-46AC-AFFE-31028D6C40EF";
shapes = (
{
closed = 1;
nodes = (
(590,0,l),
(590,100,l),
(150,100,l),
(150,700,l),
(50,700,l),
(50,0,l)
);
},
{
closed = 1;
nodes = (
(500,320,o),
(570,370,o),
(570,510,cs),
(570,630,o),
(500,700,o),
(370,700,cs),
(220,700,o),
(100,560,o),
(100,530,c),
(100,390,l),
(100,420,o),
(230,600,o),
(370,600,cs),
(430,600,o),
(470,570,o),
(470,510,cs),
(470,450,o),
(450,420,o),
(370,420,c),
(370,320,l)
);
}
);
width = 640;
},
{
associatedMasterId = m01;
attr = {
axisRules = (
{
},
{
max = 1;
min = 0.5;
}
);
};
layerId = "D89494AC-92E4-42A1-A62D-22613C665250";
name = "23年5月8日 11:47";
shapes = (
{
closed = 1;
nodes = (
(560,0,l),
(560,20,l),
(80,20,l),
(80,700,l),
(60,700,l),
(60,0,l)
);
},
{
pos = (70,700);
ref = "serif-top";
},
{
closed = 1;
nodes = (
(490,400,o),
(540,440,o),
(540,540,cs),
(540,650,o),
(460,700,o),
(340,700,cs),
(220,700,o),
(104,605,o),
(64,505,c),
(80,490,l),
(120,590,o),
(230,680,o),
(340,680,cs),
(450,680,o),
(520,630,o),
(520,540,cs),
(520,450,o),
(470,420,o),
(390,420,c),
(390,400,l)
);
}
);
width = 620;
},
{
associatedMasterId = "5DCAC9C2-0545-46AC-AFFE-31028D6C40EF";
attr = {
axisRules = (
{
},
{
max = 1;
min = 0.5;
}
);
};
layerId = "D0237231-FA1D-4635-8077-E85D7DD800E8";
name = "23年5月8日 11:47";
shapes = (
{
closed = 1;
nodes = (
(590,0,l),
(590,100,l),
(150,100,l),
(150,700,l),
(50,700,l),
(50,0,l)
);
},
{
pos = (100,700);
ref = "serif-top";
},
{
closed = 1;
nodes = (
(500,320,o),
(570,370,o),
(570,510,cs),
(570,630,o),
(500,700,o),
(370,700,cs),
(220,700,o),
(100,560,o),
(100,530,c),
(100,390,l),
(100,420,o),
(230,600,o),
(370,600,cs),
(430,600,o),
(470,570,o),
(470,510,cs),
(470,450,o),
(450,420,o),
(370,420,c),
(370,320,l)
);
}
);
width = 640;
}
);
unicode = 74;
},
{
glyphname = K;
kernLeft = "upper-hook";
lastChange = "2023-05-27 18:56:21 +0000";
layers = (
{
layerId = m01;
shapes = (
{
closed = 1;
nodes = (
(420,410,l),
(150,410,o),
(90,450,o),
(90,700,c),
(70,700,l),
(70,440,o),
(140,390,o),
(420,390,c)
);
},
{
pos = (80,-10);
ref = "common-hook3";
},
{
pos = (-60,0);
ref = "common-hook";
},
{
closed = 1;
nodes = (
(430,130,l),
(430,530,l),
(410,530,l),
(410,130,l)
);
},
{
closed = 1;
nodes = (
(90,680,l),
(90,700,l),
(70,700,l),
(70,680,l)
);
},
{
closed = 1;
nodes = (
(431,660,o),
(440,669,o),
(440,680,cs),
(440,691,o),
(431,700,o),
(420,700,cs),
(409,700,o),
(400,691,o),
(400,680,cs),
(400,669,o),
(409,660,o),
(420,660,cs)
);
}
);
width = 500;
},
{
layerId = "5DCAC9C2-0545-46AC-AFFE-31028D6C40EF";
shapes = (
{
closed = 1;
nodes = (
(450,450,l),
(210,450,o),
(160,500,o),
(160,700,c),
(60,700,l),
(60,440,o),
(164,352,o),
(450,350,c)
);
},
{
pos = (80,-10);
ref = "common-hook3";
},
{
pos = (-130,0);
ref = "common-hook";
},
{
closed = 1;
nodes = (
(500,190,l),
(500,550,l),
(400,550,l),
(400,190,l)
);
},
{
closed = 1;
nodes = (
(160,600,l),
(160,700,l),
(60,700,l),
(60,600,l)
);
},
{
closed = 1;
nodes = (
(478,605,o),
(500,627,o),
(500,655,cs),
(500,683,o),
(478,705,o),
(450,705,cs),
(422,705,o),
(400,683,o),
(400,655,cs),
(400,627,o),
(422,605,o),
(450,605,cs)
);
}
);
width = 550;
},
{
associatedMasterId = m01;
attr = {
axisRules = (
{
},
{
max = 1;
min = 0.5;
}
);
};
layerId = "7EA6160E-E28C-49C2-A227-D552FF18D8EF";
name = "23年5月15日 16:33";
shapes = (
{
closed = 1;
nodes = (
(420,410,l),
(150,410,o),
(90,450,o),
(90,700,c),
(70,700,l),
(70,440,o),
(140,390,o),
(420,390,c)
);
},
{
pos = (80,-10);
ref = "common-hook3";
},
{
pos = (-60,0);
ref = "common-hook";
},
{
closed = 1;
nodes = (
(430,130,l),
(430,530,l),
(410,530,l),
(410,130,l)
);
},
{
closed = 1;
nodes = (
(90,680,l),
(90,700,l),
(70,700,l),
(70,680,l)
);
},
{
closed = 1;
nodes = (
(431,660,o),
(440,669,o),
(440,680,cs),
(440,691,o),
(431,700,o),
(420,700,cs),
(409,700,o),
(400,691,o),
(400,680,cs),
(400,669,o),
(409,660,o),
(420,660,cs)
);
},
{
pos = (420,530);
ref = "serif-top";
}
);
width = 500;
},
{
associatedMasterId = "5DCAC9C2-0545-46AC-AFFE-31028D6C40EF";
attr = {
axisRules = (
{
},
{
max = 1;
min = 0.5;
}
);
};
layerId = "68BA1B6B-A862-439F-A599-B5402E57DD66";
name = "23年5月15日 16:33";
shapes = (
{
closed = 1;
nodes = (
(450,450,l),
(210,450,o),
(160,500,o),
(160,700,c),
(60,700,l),
(60,440,o),
(164,352,o),
(450,350,c)
);
},
{
pos = (80,-10);
ref = "common-hook3";
},
{
pos = (-130,0);
ref = "common-hook";
},
{
closed = 1;
nodes = (
(500,190,l),
(500,550,l),
(400,550,l),
(400,190,l)
);
},
{
closed = 1;
nodes = (
(160,600,l),
(160,700,l),
(60,700,l),
(60,600,l)
);
},
{
closed = 1;
nodes = (
(478,605,o),
(500,627,o),
(500,655,cs),
(500,683,o),
(478,705,o),
(450,705,cs),
(422,705,o),
(400,683,o),
(400,655,cs),
(400,627,o),
(422,605,o),
(450,605,cs)
);
},
{
pos = (450,550);
ref = "serif-top";
}
);
width = 550;
}
);
unicode = 75;
},
{
glyphname = L;
kernLeft = "upper-hook";
lastChange = "2023-05-25 10:01:12 +0000";
layers = (
{
layerId = m01;
shapes = (
{
pos = (230,-5);
ref = "common-hook2";
},
{
closed = 1;
nodes = (
(70,700,l),
(70,680,l),
(400,680,l),
(400,75,l),
(420,75,l),
(420,700,l)
);
},
{
pos = (-60,0);
ref = "common-hook";
}
);
width = 480;
},
{
layerId = "5DCAC9C2-0545-46AC-AFFE-31028D6C40EF";
shapes = (
{
pos = (120,-10);
ref = "common-hook2";
},
{
closed = 1;
nodes = (
(60,700,l),
(60,600,l),
(310,600,l),
(310,120,l),
(410,120,l),
(410,700,l)
);
},
{
pos = (-130,0);
ref = "common-hook";
}
);
width = 460;
}
);
unicode = 76;
},
{
glyphname = M;
kernRight = N;
lastChange = "2023-05-27 18:59:22 +0000";
layers = (
{
layerId = m01;
shapes = (
{
closed = 1;
nodes = (
(80,0,l),
(80,700,l),
(60,700,l),
(60,0,l)
);
},
{
pos = (100,0);
ref = N;
}
);
width = 610;
},
{
layerId = "5DCAC9C2-0545-46AC-AFFE-31028D6C40EF";
shapes = (
{
closed = 1;
nodes = (
(150,0,l),
(150,700,l),
(50,700,l),
(50,0,l)
);
},
{
pos = (180,0);
ref = N;
}
);
width = 780;
},
{
associatedMasterId = m01;
attr = {
axisRules = (
{
},
{
max = 1;
min = 0.5;
}
);
};
layerId = "63FF0D3A-79A6-4A6E-888C-5C8B43DB33C8";
name = "23年5月12日 18:11";
shapes = (
{
closed = 1;
nodes = (
(80,0,l),
(80,700,l),
(60,700,l),
(60,0,l)
);
},
{
pos = (130,0);
ref = N;
},
{
pos = (70,0);
ref = "serif-bottom";
},
{
pos = (70,700);
ref = "serif-top";
}
);
width = 625;
},
{
associatedMasterId = "5DCAC9C2-0545-46AC-AFFE-31028D6C40EF";
attr = {
axisRules = (
{
},
{
max = 1;
min = 0.5;
}
);
};
layerId = "F608DF03-221B-43DA-B1CE-14289D4EEB73";
name = "23年5月12日 18:11";
shapes = (
{
closed = 1;
nodes = (
(150,0,l),
(150,700,l),
(50,700,l),
(50,0,l)
);
},
{
pos = (180,0);
ref = N;
},
{
pos = (100,0);
ref = "serif-bottom";
},
{
pos = (100,700);
ref = "serif-top";
}
);
width = 795;
}
);
unicode = 77;
},
{
glyphname = N;
kernRight = N;
lastChange = "2023-05-27 19:00:30 +0000";
layers = (
{
layerId = m01;
shapes = (
{
closed = 1;
nodes = (
(440,500,l),
(460,500,l),
(460,700,l),
(440,700,l)
);
},
{
closed = 1;
nodes = (
(60,360,l),
(260,360,l),
(260,380,l),
(80,380,l),
(80,700,l),
(60,700,l)
);
},
{
closed = 1;
nodes = (
(80,0,l),
(80,180,ls),
(80,310,o),
(150,360,o),
(260,360,cs),
(370,360,o),
(440,320,o),
(440,180,cs),
(440,180,o),
(440,0,o),
(440,0,c),
(460,0,l),
(460,180,ls),
(460,320,o),
(400,380,o),
(260,380,cs),
(120,380,o),
(60,310,o),
(60,180,cs),
(60,0,l)
);
}
);
width = 510;
},
{
layerId = "5DCAC9C2-0545-46AC-AFFE-31028D6C40EF";
shapes = (
{
closed = 1;
nodes = (
(430,500,l),
(530,500,l),
(530,700,l),
(430,700,l)
);
},
{
closed = 1;
nodes = (
(50,320,l),
(290,320,l),
(290,420,l),
(150,420,l),
(150,700,l),
(50,700,l)
);
},
{
closed = 1;
nodes = (
(150,0,l),
(150,180,ls),
(150,280,o),
(180,320,o),
(290,320,cs),
(400,320,o),
(430,280,o),
(430,180,cs),
(430,180,o),
(430,0,o),
(430,0,c),
(530,0,l),
(530,180,ls),
(530,350,o),
(430,420,o),
(290,420,cs),
(150,420,o),
(50,350,o),
(50,180,cs),
(50,0,l)
);
}
);
width = 570;
},
{
associatedMasterId = m01;
attr = {
axisRules = (
{
},
{
max = 1;
min = 0.5;
}
);
};
layerId = "FB527706-37EE-4E30-AFDF-8C515A75E320";
name = "23年5月12日 18:09";
shapes = (
{
closed = 1;
nodes = (
(440,500,l),
(460,500,l),
(460,700,l),
(440,700,l)
);
},
{
closed = 1;
nodes = (
(60,360,l),
(260,360,l),
(260,380,l),
(80,380,l),
(80,700,l),
(60,700,l)
);
},
{
closed = 1;
nodes = (
(80,0,l),
(80,180,ls),
(80,310,o),
(150,360,o),
(260,360,cs),
(370,360,o),
(440,320,o),
(440,180,cs),
(440,180,o),
(440,0,o),
(440,0,c),
(460,0,l),
(460,180,ls),
(460,320,o),
(400,380,o),
(260,380,cs),
(120,380,o),
(60,310,o),
(60,180,cs),
(60,0,l)
);
},
{
pos = (70,700);
ref = "serif-top";
},
{
pos = (450,700);
ref = "serif-top";
},
{
pos = (70,0);
ref = "serif-bottom";
},
{
pos = (450,0);
ref = "serif-bottom";
},
{
pos = (450,500);
ref = "serif-bottom";
}
);
width = 510;
},
{
associatedMasterId = "5DCAC9C2-0545-46AC-AFFE-31028D6C40EF";
attr = {
axisRules = (
{
},
{
max = 1;
min = 0.5;
}
);
};
layerId = "3D3DA74D-4204-4A56-A6CD-FCD49C913A06";
name = "23年5月12日 18:09";
shapes = (
{
closed = 1;
nodes = (
(430,480,l),
(530,480,l),
(530,700,l),
(430,700,l)
);
},
{
closed = 1;
nodes = (
(50,320,l),
(290,320,l),
(290,420,l),
(150,420,l),
(150,700,l),
(50,700,l)
);
},
{
closed = 1;
nodes = (
(150,0,l),
(150,180,ls),
(150,280,o),
(180,320,o),
(290,320,cs),
(400,320,o),
(430,280,o),
(430,180,cs),
(430,180,o),
(430,0,o),
(430,0,c),
(530,0,l),
(530,180,ls),
(530,350,o),
(430,420,o),
(290,420,cs),
(150,420,o),
(50,350,o),
(50,180,cs),
(50,0,l)
);
},
{
pos = (100,700);
ref = "serif-top";
},
{
pos = (480,700);
ref = "serif-top";
},
{
pos = (100,0);
ref = "serif-bottom";
},
{
pos = (480,0);
ref = "serif-bottom";
},
{
pos = (480,480);
ref = "serif-bottom";
}
);
width = 570;
}
);
unicode = 78;
},
{
glyphname = P;
kernLeft = "upper-hook";
lastChange = "2023-05-27 19:11:17 +0000";
layers = (
{
layerId = m01;
shapes = (
{
closed = 1;
nodes = (
(70,200,l),
(90,200,l),
(90,700,l),
(70,700,l)
);
},
{
closed = 1;
nodes = (
(80,420,l),
(270,420,o),
(370,340,o),
(370,205,cs),
(370,60,o),
(310,10,o),
(230,10,cs),
(150,10,o),
(90,60,o),
(90,130,c),
(70,130,l),
(70,50,o),
(140,-10,o),
(230,-10,cs),
(320,-10,o),
(390,50,o),
(390,205,cs),
(390,350,o),
(280,440,o),
(80,440,c),
(80,430,l)
);
},
{
pos = (-60,0);
ref = "common-hook";
}
);
width = 420;
},
{
layerId = "5DCAC9C2-0545-46AC-AFFE-31028D6C40EF";
shapes = (
{
closed = 1;
nodes = (
(60,230,l),
(160,230,l),
(160,700,l),
(60,700,l)
);
},
{
closed = 1;
nodes = (
(110,370,l),
(290,370,o),
(360,330,o),
(360,220,cs),
(360,110,o),
(320,90,o),
(260,90,cs),
(200,90,o),
(160,120,o),
(160,170,c),
(60,170,l),
(60,50,o),
(160,-10,o),
(260,-10,cs),
(360,-10,o),
(460,50,o),
(460,220,cs),
(460,390,o),
(340,470,o),
(110,470,c),
(110,420,l)
);
},
{
pos = (-130,0);
ref = "common-hook";
}
);
width = 485;
},
{
associatedMasterId = m01;
attr = {
axisRules = (
{
},
{
max = 1;
min = 0.5;
}
);
};
layerId = "A9F47A86-4EB6-4DFB-A7B5-210C8AC53624";
name = "23年5月15日 16:44";
shapes = (
{
closed = 1;
nodes = (
(70,200,l),
(90,200,l),
(90,700,l),
(70,700,l)
);
},
{
closed = 1;
nodes = (
(80,420,l),
(270,420,o),
(370,340,o),
(370,205,cs),
(370,60,o),
(310,10,o),
(230,10,cs),
(150,10,o),
(90,60,o),
(90,130,c),
(70,130,l),
(70,50,o),
(140,-10,o),
(230,-10,cs),
(320,-10,o),
(390,50,o),
(390,205,cs),
(390,350,o),
(280,440,o),
(80,440,c),
(80,430,l)
);
},
{
pos = (-60,0);
ref = "common-hook";
},
{
pos = (80,220);
ref = "serif-top";
}
);
width = 420;
},
{
associatedMasterId = "5DCAC9C2-0545-46AC-AFFE-31028D6C40EF";
attr = {
axisRules = (
{
},
{
max = 1;
min = 0.5;
}
);
};
layerId = "2256E5A7-DDC6-4E19-ADDC-60E99F656195";
name = "23年5月15日 16:44";
shapes = (
{
closed = 1;
nodes = (
(60,230,l),
(160,230,l),
(160,700,l),
(60,700,l)
);
},
{
closed = 1;
nodes = (
(110,370,l),
(290,370,o),
(360,330,o),
(360,220,cs),
(360,110,o),
(320,90,o),
(260,90,cs),
(200,90,o),
(160,120,o),
(160,170,c),
(60,170,l),
(60,50,o),
(160,-10,o),
(260,-10,cs),
(360,-10,o),
(460,50,o),
(460,220,cs),
(460,390,o),
(340,470,o),
(110,470,c),
(110,420,l)
);
},
{
pos = (-130,0);
ref = "common-hook";
},
{
pos = (110,280);
ref = "serif-top";
}
);
width = 485;
}
);
unicode = 80;
},
{
glyphname = Q;
kernRight = O;
lastChange = "2023-05-27 19:20:00 +0000";
layers = (
{
layerId = m01;
shapes = (
{
closed = 1;
nodes = (
(80,0,l),
(80,370,l),
(260,530,l),
(440,370,l),
(440,0,l),
(460,0,l),
(460,380,l),
(270,550,l),
(270,700,l),
(250,700,l),
(250,550,l),
(60,380,l),
(60,0,l)
);
},
{
pos = (310,700);
ref = "common-hook";
scale = (1,-1);
}
);
width = 520;
},
{
layerId = "5DCAC9C2-0545-46AC-AFFE-31028D6C40EF";
shapes = (
{
closed = 1;
nodes = (
(150,0,l),
(150,360,l),
(290,490,l),
(430,360,l),
(430,0,l),
(530,0,l),
(530,390,l),
(340,570,l),
(340,700,l),
(240,700,l),
(240,570,l),
(50,390,l),
(50,0,l)
);
},
{
pos = (240,700);
ref = "common-hook";
scale = (1,-1);
}
);
width = 580;
},
{
associatedMasterId = m01;
attr = {
axisRules = (
{
},
{
max = 1;
min = 0.5;
}
);
};
layerId = "8C830B7F-DD70-40F0-ABFF-B08F87BB946D";
name = "23年5月15日 16:39";
shapes = (
{
closed = 1;
nodes = (
(80,0,l),
(80,370,l),
(260,530,l),
(440,370,l),
(440,0,l),
(460,0,l),
(460,380,l),
(270,550,l),
(270,700,l),
(250,700,l),
(250,550,l),
(60,380,l),
(60,0,l)
);
},
{
pos = (310,700);
ref = "common-hook";
scale = (1,-1);
},
{
pos = (70,0);
ref = "serif-bottom";
},
{
pos = (260,700);
ref = "serif-top";
}
);
width = 520;
},
{
associatedMasterId = "5DCAC9C2-0545-46AC-AFFE-31028D6C40EF";
attr = {
axisRules = (
{
},
{
max = 1;
min = 0.5;
}
);
};
layerId = "31498EEC-7373-4165-87A9-CFE19D1F3080";
name = "23年5月15日 16:39";
shapes = (
{
closed = 1;
nodes = (
(150,0,l),
(150,360,l),
(290,490,l),
(430,360,l),
(430,0,l),
(530,0,l),
(530,390,l),
(340,570,l),
(340,700,l),
(240,700,l),
(240,570,l),
(50,390,l),
(50,0,l)
);
},
{
pos = (240,700);
ref = "common-hook";
scale = (1,-1);
},
{
pos = (100,0);
ref = "serif-bottom";
},
{
pos = (290,700);
ref = "serif-top";
}
);
width = 580;
}
);
unicode = 81;
},
{
glyphname = R;
lastChange = "2023-05-25 10:11:18 +0000";
layers = (
{
layerId = m01;
shapes = (
{
closed = 1;
nodes = (
(530,130,l),
(530,420,l),
(510,420,l),
(510,130,l)
);
},
{
pos = (180,-10);
ref = "common-hook3";
},
{
pos = (-20,0);
ref = "common-stand";
},
{
pos = (120,0);
ref = "common-hook";
}
);
width = 590;
},
{
layerId = "5DCAC9C2-0545-46AC-AFFE-31028D6C40EF";
shapes = (
{
closed = 1;
nodes = (
(615,190,l),
(615,420,l),
(515,420,l),
(515,190,l)
);
},
{
pos = (195,-10);
ref = "common-hook3";
},
{
pos = (-25,0);
ref = "common-stand";
},
{
pos = (95,0);
ref = "common-hook";
}
);
width = 665;
}
);
unicode = 82;
},
{
glyphname = S;
lastChange = "2023-05-27 19:50:55 +0000";
layers = (
{
layerId = m01;
shapes = (
{
closed = 1;
nodes = (
(420,70,l),
(420,400,l),
(310,400,l),
(310,700,l),
(290,700,l),
(290,380,l),
(400,380,l),
(400,70,l)
);
},
{
pos = (10,-10);
ref = "common-hook2";
},
{
pos = (230,-10);
ref = "common-hook2";
},
{
closed = 1;
nodes = (
(200,70,l),
(200,400,l),
(90,400,l),
(90,700,l),
(70,700,l),
(70,380,l),
(180,380,l),
(180,70,l)
);
}
);
width = 480;
},
{
layerId = "5DCAC9C2-0545-46AC-AFFE-31028D6C40EF";
shapes = (
{
closed = 1;
nodes = (
(570,120,l),
(570,440,l),
(440,440,l),
(440,700,l),
(340,700,l),
(340,350,l),
(470,350,l),
(470,120,l)
);
},
{
pos = (0,-10);
ref = "common-hook2";
},
{
pos = (280,-10);
ref = "common-hook2";
},
{
closed = 1;
nodes = (
(290,120,l),
(290,440,l),
(160,440,l),
(160,700,l),
(60,700,l),
(60,350,l),
(190,350,l),
(190,120,l)
);
}
);
width = 620;
},
{
associatedMasterId = m01;
attr = {
axisRules = (
{
},
{
max = 1;
min = 0.5;
}
);
};
layerId = "A502FA16-7BB1-42CE-94CC-52A4D81D77FA";
name = "23年5月1日 13:08";
shapes = (
{
closed = 1;
nodes = (
(420,70,l),
(420,400,l),
(310,400,l),
(310,700,l),
(290,700,l),
(290,380,l),
(400,380,l),
(400,70,l)
);
},
{
pos = (10,-10);
ref = "common-hook2";
},
{
pos = (230,-10);
ref = "common-hook2";
},
{
closed = 1;
nodes = (
(200,70,l),
(200,400,l),
(90,400,l),
(90,700,l),
(70,700,l),
(70,380,l),
(180,380,l),
(180,70,l)
);
},
{
pos = (80,700);
ref = "serif-top";
},
{
pos = (300,700);
ref = "serif-top";
}
);
width = 480;
},
{
associatedMasterId = "5DCAC9C2-0545-46AC-AFFE-31028D6C40EF";
attr = {
axisRules = (
{
},
{
max = 1;
min = 0.5;
}
);
};
layerId = "2B3B9949-4FB5-4132-B7FF-B1C1BA5E1985";
name = "23年5月1日 13:08";
shapes = (
{
closed = 1;
nodes = (
(570,120,l),
(570,440,l),
(440,440,l),
(440,700,l),
(340,700,l),
(340,350,l),
(470,350,l),
(470,120,l)
);
},
{
pos = (0,-10);
ref = "common-hook2";
},
{
pos = (280,-10);
ref = "common-hook2";
},
{
closed = 1;
nodes = (
(290,120,l),
(290,440,l),
(160,440,l),
(160,700,l),
(60,700,l),
(60,350,l),
(190,350,l),
(190,120,l)
);
},
{
pos = (110,700);
ref = "serif-top";
},
{
pos = (390,700);
ref = "serif-top";
}
);
width = 620;
}
);
unicode = 83;
},
{
glyphname = T;
kernRight = V;
lastChange = "2023-05-27 14:07:28 +0000";
layers = (
{
layerId = m01;
shapes = (
{
closed = 1;
nodes = (
(10,680,l),
(510,680,l),
(510,700,l),
(10,700,l)
);
},
{
closed = 1;
nodes = (
(130,0,l),
(150,0,l),
(150,690,l),
(130,690,l)
);
},
{
closed = 1;
nodes = (
(370,0,l),
(390,0,l),
(390,690,l),
(370,690,l)
);
}
);
width = 520;
},
{
layerId = "5DCAC9C2-0545-46AC-AFFE-31028D6C40EF";
shapes = (
{
closed = 1;
nodes = (
(20,600,l),
(580,600,l),
(580,700,l),
(20,700,l)
);
},
{
closed = 1;
nodes = (
(130,0,l),
(230,0,l),
(230,650,l),
(130,650,l)
);
},
{
closed = 1;
nodes = (
(370,0,l),
(470,0,l),
(470,650,l),
(370,650,l)
);
}
);
width = 600;
},
{
associatedMasterId = m01;
attr = {
axisRules = (
{
},
{
max = 1;
min = 0.5;
}
);
};
layerId = "FFE3EE48-406F-48B0-BFFD-5BBA6BC46DF7";
name = "23年5月1日 12:55";
shapes = (
{
closed = 1;
nodes = (
(10,680,l),
(510,680,l),
(510,700,l),
(10,700,l)
);
},
{
closed = 1;
nodes = (
(130,0,l),
(150,0,l),
(150,690,l),
(130,690,l)
);
},
{
closed = 1;
nodes = (
(370,0,l),
(390,0,l),
(390,690,l),
(370,690,l)
);
},
{
pos = (140,0);
ref = "serif-bottom";
},
{
pos = (380,0);
ref = "serif-bottom";
}
);
width = 520;
},
{
associatedMasterId = "5DCAC9C2-0545-46AC-AFFE-31028D6C40EF";
attr = {
axisRules = (
{
},
{
max = 1;
min = 0.5;
}
);
};
layerId = "420ECBED-2EA9-4EE4-A4A2-853282F669CF";
name = "23年5月1日 12:55";
shapes = (
{
closed = 1;
nodes = (
(20,600,l),
(580,600,l),
(580,700,l),
(20,700,l)
);
},
{
closed = 1;
nodes = (
(130,0,l),
(230,0,l),
(230,650,l),
(130,650,l)
);
},
{
closed = 1;
nodes = (
(370,0,l),
(470,0,l),
(470,650,l),
(370,650,l)
);
},
{
pos = (180,0);
ref = "serif-bottom";
},
{
pos = (420,0);
ref = "serif-bottom";
}
);
width = 600;
}
);
unicode = 84;
},
{
glyphname = U;
kernRight = V;
lastChange = "2023-05-11 13:52:38 +0000";
layers = (
{
layerId = m01;
shapes = (
{
closed = 1;
nodes = (
(10,680,l),
(510,680,l),
(510,700,l),
(10,700,l)
);
},
{
closed = 1;
nodes = (
(130,480,l),
(250,480,ls),
(390,480,o),
(450,410,o),
(450,270,cs),
(450,70,o),
(370,10,o),
(280,10,cs),
(170,10,o),
(110,60,o),
(110,150,c),
(90,150,l),
(90,50,o),
(150,-10,o),
(280,-10,cs),
(390,-10,o),
(470,60,o),
(470,270,cs),
(470,430,o),
(400,500,o),
(250,500,cs),
(150,500,l),
(150,690,l),
(130,690,l)
);
}
);
width = 520;
},
{
layerId = "5DCAC9C2-0545-46AC-AFFE-31028D6C40EF";
shapes = (
{
closed = 1;
nodes = (
(20,600,l),
(600,600,l),
(600,700,l),
(20,700,l)
);
},
{
closed = 1;
nodes = (
(140,400,l),
(290,400,ls),
(390,400,o),
(440,355,o),
(440,245,cs),
(440,130,o),
(400,90,o),
(320,90,cs),
(220,90,o),
(200,130,o),
(200,190,c),
(100,190,l),
(100,60,o),
(190,-10,o),
(320,-10,cs),
(440,-10,o),
(540,60,o),
(540,245,cs),
(540,385,o),
(500,500,o),
(290,500,cs),
(240,500,l),
(240,650,l),
(140,650,l)
);
}
);
width = 620;
}
);
unicode = 85;
},
{
glyphname = V;
kernRight = V;
lastChange = "2023-05-15 15:50:04 +0000";
layers = (
{
layerId = m01;
shapes = (
{
closed = 1;
nodes = (
(10,680,l),
(510,680,l),
(510,700,l),
(10,700,l)
);
},
{
closed = 1;
nodes = (
(110,400,l),
(130,400,l),
(130,690,l),
(110,690,l)
);
},
{
closed = 1;
nodes = (
(390,130,l),
(410,130,l),
(410,690,l),
(390,690,l)
);
},
{
pos = (60,-10);
ref = "common-hook3";
}
);
width = 520;
},
{
layerId = "5DCAC9C2-0545-46AC-AFFE-31028D6C40EF";
shapes = (
{
closed = 1;
nodes = (
(20,600,l),
(590,600,l),
(590,700,l),
(20,700,l)
);
},
{
closed = 1;
nodes = (
(120,400,l),
(220,400,l),
(220,650,l),
(120,650,l)
);
},
{
closed = 1;
nodes = (
(390,190,l),
(490,190,l),
(490,650,l),
(390,650,l)
);
},
{
pos = (70,-10);
ref = "common-hook3";
}
);
width = 610;
},
{
associatedMasterId = m01;
attr = {
axisRules = (
{
},
{
max = 1;
min = 0.5;
}
);
};
layerId = "6AA7ABCB-3DEF-4C7A-8D2F-8118E4035175";
name = "23年5月15日 16:49";
shapes = (
{
closed = 1;
nodes = (
(10,680,l),
(510,680,l),
(510,700,l),
(10,700,l)
);
},
{
closed = 1;
nodes = (
(110,400,l),
(130,400,l),
(130,690,l),
(110,690,l)
);
},
{
closed = 1;
nodes = (
(390,130,l),
(410,130,l),
(410,690,l),
(390,690,l)
);
},
{
pos = (60,-10);
ref = "common-hook3";
},
{
pos = (120,400);
ref = "serif-bottom";
}
);
width = 520;
},
{
associatedMasterId = "5DCAC9C2-0545-46AC-AFFE-31028D6C40EF";
attr = {
axisRules = (
{
},
{
max = 1;
min = 0.5;
}
);
};
layerId = "B2FE6C60-ECD3-4D0B-BAE7-363930DECD86";
name = "23年5月15日 16:49";
shapes = (
{
closed = 1;
nodes = (
(20,600,l),
(590,600,l),
(590,700,l),
(20,700,l)
);
},
{
closed = 1;
nodes = (
(120,380,l),
(220,380,l),
(220,650,l),
(120,650,l)
);
},
{
closed = 1;
nodes = (
(390,190,l),
(490,190,l),
(490,650,l),
(390,650,l)
);
},
{
pos = (70,-10);
ref = "common-hook3";
},
{
pos = (170,380);
ref = "serif-bottom";
}
);
width = 610;
}
);
unicode = 86;
},
{
glyphname = W;
kernRight = V;
lastChange = "2023-05-15 15:51:29 +0000";
layers = (
{
layerId = m01;
shapes = (
{
closed = 1;
nodes = (
(310,130,l),
(310,690,l),
(290,690,l),
(290,130,l)
);
},
{
pos = (-40,-10);
ref = "common-hook3";
},
{
closed = 1;
nodes = (
(190,400,l),
(190,690,l),
(170,690,l),
(170,400,l)
);
},
{
closed = 1;
nodes = (
(430,400,l),
(430,690,l),
(410,690,l),
(410,400,l)
);
},
{
closed = 1;
nodes = (
(520,680,l),
(520,700,l),
(80,700,l),
(80,680,l)
);
}
);
width = 530;
},
{
layerId = "5DCAC9C2-0545-46AC-AFFE-31028D6C40EF";
shapes = (
{
closed = 1;
nodes = (
(390,190,l),
(390,650,l),
(290,650,l),
(290,190,l)
);
},
{
pos = (-30,-10);
ref = "common-hook3";
},
{
closed = 1;
nodes = (
(240,400,l),
(240,650,l),
(140,650,l),
(140,400,l)
);
},
{
closed = 1;
nodes = (
(540,400,l),
(540,650,l),
(440,650,l),
(440,400,l)
);
},
{
closed = 1;
nodes = (
(610,600,l),
(610,700,l),
(70,700,l),
(70,600,l)
);
}
);
width = 630;
},
{
associatedMasterId = m01;
attr = {
axisRules = (
{
},
{
max = 1;
min = 0.5;
}
);
};
layerId = "F8CCE11B-996B-4BB5-B286-27D33F26DA8C";
name = "23年5月15日 16:50";
shapes = (
{
closed = 1;
nodes = (
(310,130,l),
(310,690,l),
(290,690,l),
(290,130,l)
);
},
{
pos = (-40,-10);
ref = "common-hook3";
},
{
closed = 1;
nodes = (
(190,400,l),
(190,690,l),
(170,690,l),
(170,400,l)
);
},
{
closed = 1;
nodes = (
(430,400,l),
(430,690,l),
(410,690,l),
(410,400,l)
);
},
{
closed = 1;
nodes = (
(520,680,l),
(520,700,l),
(80,700,l),
(80,680,l)
);
},
{
pos = (180,400);
ref = "serif-bottom";
},
{
pos = (420,400);
ref = "serif-bottom";
}
);
width = 530;
},
{
associatedMasterId = "5DCAC9C2-0545-46AC-AFFE-31028D6C40EF";
attr = {
axisRules = (
{
},
{
max = 1;
min = 0.5;
}
);
};
layerId = "5A7C6A48-B6EE-4A6D-BAC2-8C9BFE6AE417";
name = "23年5月15日 16:50";
shapes = (
{
closed = 1;
nodes = (
(390,190,l),
(390,650,l),
(290,650,l),
(290,190,l)
);
},
{
pos = (-30,-10);
ref = "common-hook3";
},
{
closed = 1;
nodes = (
(220,380,l),
(220,650,l),
(120,650,l),
(120,380,l)
);
},
{
closed = 1;
nodes = (
(560,380,l),
(560,650,l),
(460,650,l),
(460,380,l)
);
},
{
closed = 1;
nodes = (
(610,600,l),
(610,700,l),
(70,700,l),
(70,600,l)
);
},
{
pos = (170,380);
ref = "serif-bottom";
},
{
pos = (510,380);
ref = "serif-bottom";
}
);
width = 630;
}
);
unicode = 87;
},
{
glyphname = X;
lastChange = "2023-05-27 19:55:31 +0000";
layers = (
{
layerId = m01;
shapes = (
{
closed = 1;
nodes = (
(60,0,l),
(80,0,l),
(80,700,l),
(60,700,l)
);
},
{
closed = 1;
nodes = (
(500,0,l),
(520,0,l),
(520,700,l),
(500,700,l)
);
},
{
closed = 1;
nodes = (
(60,410,o),
(145,353,o),
(287,315,cs),
(417,281,o),
(500,227,o),
(500,50,c),
(520,50,l),
(520,240,o),
(435,297,o),
(293,335,cs),
(163,369,o),
(80,423,o),
(80,600,c),
(60,600,l)
);
}
);
width = 580;
},
{
layerId = "5DCAC9C2-0545-46AC-AFFE-31028D6C40EF";
shapes = (
{
closed = 1;
nodes = (
(50,0,l),
(150,0,l),
(150,700,l),
(50,700,l)
);
},
{
closed = 1;
nodes = (
(460,0,l),
(560,0,l),
(560,700,l),
(460,700,l)
);
},
{
closed = 1;
nodes = (
(50,450,o),
(156,336,o),
(298,299,cs),
(427,266,o),
(460,187,o),
(460,50,c),
(560,50,l),
(560,250,o),
(464,364,o),
(322,403,cs),
(193,438,o),
(150,513,o),
(150,650,c),
(50,650,l)
);
}
);
width = 610;
},
{
associatedMasterId = m01;
attr = {
axisRules = (
{
},
{
max = 1;
min = 0.5;
}
);
};
layerId = "6AD3310D-08E2-49C5-812D-C04ECDDDAAB0";
name = "23年5月15日 16:47";
shapes = (
{
closed = 1;
nodes = (
(60,0,l),
(80,0,l),
(80,700,l),
(60,700,l)
);
},
{
closed = 1;
nodes = (
(500,0,l),
(520,0,l),
(520,700,l),
(500,700,l)
);
},
{
closed = 1;
nodes = (
(60,410,o),
(145,353,o),
(287,315,cs),
(417,281,o),
(500,227,o),
(500,50,c),
(520,50,l),
(520,240,o),
(435,297,o),
(293,335,cs),
(163,369,o),
(80,423,o),
(80,600,c),
(60,600,l)
);
},
{
pos = (70,0);
ref = "serif-bottom";
},
{
pos = (510,0);
ref = "serif-bottom";
},
{
pos = (70,700);
ref = "serif-top";
},
{
pos = (510,700);
ref = "serif-top";
}
);
width = 580;
},
{
associatedMasterId = "5DCAC9C2-0545-46AC-AFFE-31028D6C40EF";
attr = {
axisRules = (
{
},
{
max = 1;
min = 0.5;
}
);
};
layerId = "FFA6C2C9-7104-4F21-B24B-5F5B639A6C2F";
name = "23年5月15日 16:47";
shapes = (
{
closed = 1;
nodes = (
(50,0,l),
(150,0,l),
(150,700,l),
(50,700,l)
);
},
{
closed = 1;
nodes = (
(460,0,l),
(560,0,l),
(560,700,l),
(460,700,l)
);
},
{
closed = 1;
nodes = (
(50,450,o),
(156,336,o),
(298,299,cs),
(427,266,o),
(460,187,o),
(460,50,c),
(560,50,l),
(560,250,o),
(464,364,o),
(322,403,cs),
(193,438,o),
(150,513,o),
(150,650,c),
(50,650,l)
);
},
{
pos = (100,0);
ref = "serif-bottom";
},
{
pos = (510,0);
ref = "serif-bottom";
},
{
pos = (100,700);
ref = "serif-top";
},
{
pos = (510,700);
ref = "serif-top";
}
);
width = 610;
}
);
unicode = 88;
},
{
glyphname = Y;
kernLeft = "upper-hook";
kernRight = A;
lastChange = "2023-05-27 19:56:09 +0000";
layers = (
{
layerId = m01;
shapes = (
{
ref = A;
},
{
closed = 1;
nodes = (
(281,390,o),
(290,399,o),
(290,410,cs),
(290,421,o),
(281,430,o),
(270,430,cs),
(259,430,o),
(250,421,o),
(250,410,cs),
(250,399,o),
(259,390,o),
(270,390,cs)
);
}
);
width = 530;
},
{
layerId = "5DCAC9C2-0545-46AC-AFFE-31028D6C40EF";
shapes = (
{
ref = A;
},
{
closed = 1;
nodes = (
(328,360,o),
(350,382,o),
(350,410,cs),
(350,438,o),
(328,460,o),
(300,460,cs),
(272,460,o),
(250,438,o),
(250,410,cs),
(250,382,o),
(272,360,o),
(300,360,cs)
);
}
);
width = 590;
},
{
associatedMasterId = m01;
attr = {
axisRules = (
{
},
{
max = 1;
min = 0.5;
}
);
};
layerId = "204FDE21-277A-4943-95FA-16D7ECEF68AA";
name = "23年5月15日 16:46";
shapes = (
{
ref = A;
},
{
closed = 1;
nodes = (
(281,390,o),
(290,399,o),
(290,410,cs),
(290,421,o),
(281,430,o),
(270,430,cs),
(259,430,o),
(250,421,o),
(250,410,cs),
(250,399,o),
(259,390,o),
(270,390,cs)
);
}
);
width = 530;
},
{
associatedMasterId = "5DCAC9C2-0545-46AC-AFFE-31028D6C40EF";
attr = {
axisRules = (
{
},
{
max = 1;
min = 0.5;
}
);
};
layerId = "75D45856-D769-4114-BB6E-DD08EE26D933";
name = "23年5月15日 16:46";
shapes = (
{
ref = A;
},
{
closed = 1;
nodes = (
(328,360,o),
(350,382,o),
(350,410,cs),
(350,438,o),
(328,460,o),
(300,460,cs),
(272,460,o),
(250,438,o),
(250,410,cs),
(250,382,o),
(272,360,o),
(300,360,cs)
);
}
);
width = 590;
}
);
unicode = 89;
},
{
glyphname = Z;
lastChange = "2023-05-27 10:21:38 +0000";
layers = (
{
layerId = m01;
shapes = (
{
closed = 1;
nodes = (
(170,220,l),
(190,220,l),
(190,700,l),
(170,700,l)
);
},
{
closed = 1;
nodes = (
(40,0,l),
(330,0,l),
(330,20,l),
(40,20,l)
);
},
{
closed = 1;
nodes = (
(50,0,l),
(50,160,o),
(110,210,o),
(190,210,c),
(190,230,l),
(100,230,o),
(30,170,o),
(30,0,c),
(40,0,l)
);
},
{
pos = (40,0);
ref = "common-hook";
}
);
width = 340;
},
{
layerId = "5DCAC9C2-0545-46AC-AFFE-31028D6C40EF";
shapes = (
{
closed = 1;
nodes = (
(170,250,l),
(270,250,l),
(270,700,l),
(170,700,l)
);
},
{
closed = 1;
nodes = (
(80,0,l),
(410,0,l),
(410,100,l),
(80,100,l)
);
},
{
closed = 1;
nodes = (
(130,0,l),
(130,170,o),
(160,200,o),
(270,200,c),
(270,300,l),
(90,300,o),
(30,250,o),
(30,0,c),
(80,0,l)
);
},
{
pos = (-20,0);
ref = "common-hook";
}
);
width = 430;
}
);
unicode = 90;
},
{
glyphname = a;
kernLeft = a;
kernRight = a;
lastChange = "2023-05-27 11:09:24 +0000";
layers = (
{
layerId = m01;
shapes = (
{
closed = 1;
nodes = (
(160,0,l),
(180,0,l),
(180,260,l),
(160,260,l)
);
},
{
closed = 1;
nodes = (
(180,260,l),
(180,382,o),
(120,490,o),
(20,490,c),
(20,470,l),
(110,470,o),
(160,360,o),
(160,260,c),
(170,260,l)
);
},
{
closed = 1;
nodes = (
(180,260,l),
(180,360,o),
(230,470,o),
(320,470,c),
(320,490,l),
(220,490,o),
(160,382,o),
(160,260,c),
(170,260,l)
);
}
);
width = 340;
},
{
layerId = "5DCAC9C2-0545-46AC-AFFE-31028D6C40EF";
shapes = (
{
closed = 1;
nodes = (
(145,0,l),
(245,0,l),
(245,210,l),
(145,210,l)
);
},
{
closed = 1;
nodes = (
(245,210,l),
(245,390,o),
(145,490,o),
(25,490,c),
(25,390,l),
(85,390,o),
(145,340,o),
(145,210,c),
(195,210,l)
);
},
{
closed = 1;
nodes = (
(245,210,l),
(245,340,o),
(305,390,o),
(365,390,c),
(365,490,l),
(245,490,o),
(145,390,o),
(145,210,c),
(195,210,l)
);
}
);
width = 390;
},
{
associatedMasterId = m01;
attr = {
axisRules = (
{
},
{
max = 1;
min = 0.5;
}
);
};
layerId = "43B47495-B50A-4F18-B98C-26557A96086C";
name = "23年5月12日 09:14";
shapes = (
{
closed = 1;
nodes = (
(160,0,l),
(180,0,l),
(180,260,l),
(160,260,l)
);
},
{
closed = 1;
nodes = (
(180,260,l),
(180,382,o),
(120,490,o),
(20,490,c),
(20,470,l),
(110,470,o),
(160,360,o),
(160,260,c),
(170,260,l)
);
},
{
closed = 1;
nodes = (
(180,260,l),
(180,360,o),
(230,470,o),
(320,470,c),
(320,490,l),
(220,490,o),
(160,382,o),
(160,260,c),
(170,260,l)
);
},
{
pos = (170,0);
ref = "serif-bottom";
}
);
width = 340;
},
{
associatedMasterId = "5DCAC9C2-0545-46AC-AFFE-31028D6C40EF";
attr = {
axisRules = (
{
},
{
max = 1;
min = 0.5;
}
);
};
layerId = "87819649-D5CA-4D48-B639-8483BA7EC603";
name = "23年5月12日 09:15";
shapes = (
{
closed = 1;
nodes = (
(145,0,l),
(245,0,l),
(245,210,l),
(145,210,l)
);
},
{
closed = 1;
nodes = (
(245,210,l),
(245,390,o),
(145,490,o),
(25,490,c),
(25,390,l),
(85,390,o),
(145,340,o),
(145,210,c),
(195,210,l)
);
},
{
closed = 1;
nodes = (
(245,210,l),
(245,340,o),
(305,390,o),
(365,390,c),
(365,490,l),
(245,490,o),
(145,390,o),
(145,210,c),
(195,210,l)
);
},
{
pos = (195,0);
ref = "serif-bottom";
}
);
width = 390;
}
);
unicode = 97;
},
{
glyphname = b;
kernLeft = b;
kernRight = c;
lastChange = "2023-05-27 10:30:07 +0000";
layers = (
{
layerId = m01;
shapes = (
{
closed = 1;
nodes = (
(337,-100,o),
(346,-91,o),
(346,-80,cs),
(346,-69,o),
(337,-60,o),
(326,-60,cs),
(315,-60,o),
(306,-69,o),
(306,-80,cs),
(306,-91,o),
(315,-100,o),
(326,-100,cs)
);
},
{
pos = (10,0);
ref = "common-bp";
}
);
width = 390;
},
{
layerId = "5DCAC9C2-0545-46AC-AFFE-31028D6C40EF";
shapes = (
{
closed = 1;
nodes = (
(368,-105,o),
(390,-83,o),
(390,-55,cs),
(390,-27,o),
(368,-5,o),
(340,-5,cs),
(312,-5,o),
(290,-27,o),
(290,-55,cs),
(290,-83,o),
(312,-105,o),
(340,-105,cs)
);
},
{
ref = "common-bp";
}
);
width = 415;
},
{
associatedMasterId = m01;
attr = {
axisRules = (
{
},
{
max = 1;
min = 0.5;
}
);
};
layerId = "3FD42C96-E449-4398-A451-FC7F5C4AC55E";
name = "23年5月12日 09:27";
shapes = (
{
closed = 1;
nodes = (
(337,-100,o),
(346,-91,o),
(346,-80,cs),
(346,-69,o),
(337,-60,o),
(326,-60,cs),
(315,-60,o),
(306,-69,o),
(306,-80,cs),
(306,-91,o),
(315,-100,o),
(326,-100,cs)
);
},
{
pos = (10,0);
ref = "common-bp";
},
{
pos = (70,-100);
ref = "serif-bottom";
}
);
width = 390;
},
{
associatedMasterId = "5DCAC9C2-0545-46AC-AFFE-31028D6C40EF";
attr = {
axisRules = (
{
},
{
max = 1;
min = 0.5;
}
);
};
layerId = "2673E10A-A284-4965-B959-E7010B77B069";
name = "23年5月12日 09:27";
shapes = (
{
closed = 1;
nodes = (
(368,-105,o),
(390,-83,o),
(390,-55,cs),
(390,-27,o),
(368,-5,o),
(340,-5,cs),
(312,-5,o),
(290,-27,o),
(290,-55,cs),
(290,-83,o),
(312,-105,o),
(340,-105,cs)
);
},
{
ref = "common-bp";
},
{
pos = (100,-100);
ref = "serif-bottom";
}
);
width = 415;
}
);
unicode = 98;
},
{
glyphname = c;
kernLeft = t;
kernRight = c;
lastChange = "2023-05-27 11:02:56 +0000";
layers = (
{
layerId = m01;
shapes = (
{
closed = 1;
nodes = (
(60,0,l),
(80,0,l),
(80,490,l),
(60,490,l)
);
},
{
closed = 1;
nodes = (
(361,0,o),
(370,9,o),
(370,20,cs),
(370,31,o),
(361,40,o),
(350,40,cs),
(339,40,o),
(330,31,o),
(330,20,cs),
(330,9,o),
(339,0,o),
(350,0,cs)
);
},
{
pos = (30,10);
ref = "common-arc";
}
);
width = 400;
},
{
layerId = "5DCAC9C2-0545-46AC-AFFE-31028D6C40EF";
shapes = (
{
closed = 1;
nodes = (
(50,0,l),
(150,0,l),
(150,490,l),
(50,490,l)
);
},
{
closed = 1;
nodes = (
(408,-5,o),
(430,17,o),
(430,45,cs),
(430,73,o),
(408,95,o),
(380,95,cs),
(352,95,o),
(330,73,o),
(330,45,cs),
(330,17,o),
(352,-5,o),
(380,-5,cs)
);
},
{
pos = (100,10);
ref = "common-arc";
}
);
width = 455;
},
{
associatedMasterId = m01;
attr = {
axisRules = (
{
},
{
max = 1;
min = 0.5;
}
);
};
layerId = "732CA159-F3FE-4477-90E6-2A098DB50F76";
name = "23年5月12日 09:28";
shapes = (
{
closed = 1;
nodes = (
(60,0,l),
(80,0,l),
(80,490,l),
(60,490,l)
);
},
{
closed = 1;
nodes = (
(361,0,o),
(370,9,o),
(370,20,cs),
(370,31,o),
(361,40,o),
(350,40,cs),
(339,40,o),
(330,31,o),
(330,20,cs),
(330,9,o),
(339,0,o),
(350,0,cs)
);
},
{
pos = (30,10);
ref = "common-arc";
},
{
pos = (70,0);
ref = "serif-bottom";
},
{
pos = (350,240);
ref = "serif-bottom";
}
);
width = 400;
},
{
associatedMasterId = "5DCAC9C2-0545-46AC-AFFE-31028D6C40EF";
attr = {
axisRules = (
{
},
{
max = 1;
min = 0.5;
}
);
};
layerId = "444F51DD-6931-41A2-8FBD-59F48F961A58";
name = "23年5月12日 09:28";
shapes = (
{
closed = 1;
nodes = (
(50,0,l),
(150,0,l),
(150,490,l),
(50,490,l)
);
},
{
closed = 1;
nodes = (
(408,-5,o),
(430,17,o),
(430,45,cs),
(430,73,o),
(408,95,o),
(380,95,cs),
(352,95,o),
(330,73,o),
(330,45,cs),
(330,17,o),
(352,-5,o),
(380,-5,cs)
);
},
{
pos = (100,10);
ref = "common-arc";
},
{
pos = (100,0);
ref = "serif-bottom";
},
{
pos = (380,200);
ref = "serif-bottom";
}
);
width = 460;
}
);
unicode = 99;
},
{
glyphname = d;
kernLeft = d;
kernRight = d;
lastChange = "2023-05-27 10:34:15 +0000";
layers = (
{
layerId = m01;
shapes = (
{
closed = 1;
nodes = (
(80,210,l),
(80,460,l),
(360,460,l),
(360,480,l),
(60,480,l),
(60,210,l)
);
},
{
pos = (10,-260);
ref = "common-loop";
}
);
width = 410;
},
{
layerId = "5DCAC9C2-0545-46AC-AFFE-31028D6C40EF";
shapes = (
{
closed = 1;
nodes = (
(150,180,l),
(150,380,l),
(390,380,l),
(390,480,l),
(50,480,l),
(50,180,l)
);
},
{
pos = (0,-250);
ref = "common-loop";
}
);
width = 430;
}
);
unicode = 100;
},
{
glyphname = e;
kernLeft = t;
kernRight = e;
lastChange = "2023-05-27 20:01:10 +0000";
layers = (
{
layerId = m01;
shapes = (
{
ref = c;
},
{
closed = 1;
nodes = (
(340,240,l),
(360,240,l),
(360,580,l),
(340,580,l)
);
}
);
width = 430;
},
{
layerId = "5DCAC9C2-0545-46AC-AFFE-31028D6C40EF";
shapes = (
{
ref = c;
},
{
closed = 1;
nodes = (
(330,210,l),
(430,210,l),
(430,600,l),
(330,600,l)
);
}
);
width = 480;
},
{
associatedMasterId = m01;
attr = {
axisRules = (
{
},
{
max = 1;
min = 0.5;
}
);
};
layerId = "7EC01F29-C385-41E8-9B64-E4F3FACA7AB8";
name = "23年5月12日 09:29";
shapes = (
{
ref = c;
},
{
closed = 1;
nodes = (
(340,240,l),
(360,240,l),
(360,580,l),
(340,580,l)
);
},
{
pos = (350,580);
ref = "serif-top";
}
);
width = 430;
},
{
associatedMasterId = "5DCAC9C2-0545-46AC-AFFE-31028D6C40EF";
attr = {
axisRules = (
{
},
{
max = 1;
min = 0.5;
}
);
};
layerId = "E7BC7D72-E59B-480B-9D1E-E228C0D211AE";
name = "23年5月12日 09:29";
shapes = (
{
ref = c;
},
{
closed = 1;
nodes = (
(330,200,l),
(430,200,l),
(430,600,l),
(330,600,l)
);
},
{
pos = (380,600);
ref = "serif-top";
}
);
width = 480;
}
);
unicode = 101;
},
{
glyphname = f;
kernLeft = l;
kernRight = f;
lastChange = "2023-05-27 14:25:32 +0000";
layers = (
{
layerId = m01;
shapes = (
{
closed = 1;
nodes = (
(320,-10,l),
(320,330,l),
(300,330,l),
(300,-10,l)
);
},
{
pos = (-30,-150);
ref = "common-hook3";
},
{
closed = 1;
nodes = (
(190,330,l),
(190,580,l),
(170,580,l),
(170,330,l)
);
}
);
width = 360;
},
{
layerId = "5DCAC9C2-0545-46AC-AFFE-31028D6C40EF";
shapes = (
{
closed = 1;
nodes = (
(395,50,l),
(395,330,l),
(295,330,l),
(295,50,l)
);
},
{
pos = (-25,-150);
ref = "common-hook3";
},
{
closed = 1;
nodes = (
(255,330,l),
(255,580,l),
(155,580,l),
(155,330,l)
);
}
);
width = 445;
},
{
associatedMasterId = m01;
attr = {
axisRules = (
{
},
{
max = 1;
min = 0.5;
}
);
};
layerId = "ADEB97CD-50D8-4B95-93D2-C3F45CBA1B2C";
name = "23年5月12日 09:31";
shapes = (
{
closed = 1;
nodes = (
(320,-10,l),
(320,330,l),
(300,330,l),
(300,-10,l)
);
},
{
pos = (-30,-150);
ref = "common-hook3";
},
{
closed = 1;
nodes = (
(190,330,l),
(190,580,l),
(170,580,l),
(170,330,l)
);
},
{
pos = (180,320);
ref = "serif-bottom";
},
{
pos = (180,580);
ref = "serif-top";
},
{
pos = (310,340);
ref = "serif-top";
}
);
width = 360;
},
{
associatedMasterId = "5DCAC9C2-0545-46AC-AFFE-31028D6C40EF";
attr = {
axisRules = (
{
},
{
max = 1;
min = 0.5;
}
);
};
layerId = "4A286E3C-B062-46B8-B06F-58F8F655F2CE";
name = "23年5月12日 09:31";
shapes = (
{
closed = 1;
nodes = (
(395,50,l),
(395,290,l),
(295,290,l),
(295,50,l)
);
},
{
pos = (-25,-150);
ref = "common-hook3";
},
{
closed = 1;
nodes = (
(255,330,l),
(255,580,l),
(155,580,l),
(155,330,l)
);
},
{
pos = (205,330);
ref = "serif-bottom";
},
{
pos = (205,580);
ref = "serif-top";
},
{
pos = (345,290);
ref = "serif-top";
}
);
width = 445;
}
);
unicode = 102;
},
{
glyphname = g;
kernLeft = g;
kernRight = g;
lastChange = "2023-05-27 11:01:23 +0000";
layers = (
{
layerId = m01;
shapes = (
{
pos = (370,10);
ref = "common-arc";
scale = (-1,1);
},
{
closed = 1;
nodes = (
(320,20,l),
(60,20,l),
(60,250,l),
(40,250,l),
(40,0,l),
(340,0,l),
(340,490,l),
(320,490,l)
);
}
);
width = 400;
},
{
layerId = "5DCAC9C2-0545-46AC-AFFE-31028D6C40EF";
shapes = (
{
pos = (360,10);
ref = "common-arc";
scale = (-1,1);
},
{
closed = 1;
nodes = (
(310,100,l),
(130,100,l),
(130,210,l),
(30,210,l),
(30,0,l),
(410,0,l),
(410,490,l),
(310,490,l)
);
}
);
width = 460;
}
);
unicode = 103;
},
{
glyphname = h;
kernLeft = h;
kernRight = h;
lastChange = "2023-05-27 10:46:22 +0000";
layers = (
{
layerId = m01;
shapes = (
{
closed = 1;
nodes = (
(360,0,l),
(360,20,l),
(80,20,l),
(80,240,l),
(60,240,l),
(60,0,l)
);
},
{
pos = (390,0);
ref = "common-arc";
scale = (-1,1);
},
{
closed = 1;
nodes = (
(360,460,l),
(360,480,l),
(60,480,l),
(60,460,l)
);
}
);
width = 380;
},
{
layerId = "5DCAC9C2-0545-46AC-AFFE-31028D6C40EF";
shapes = (
{
closed = 1;
nodes = (
(380,0,l),
(380,100,l),
(150,100,l),
(150,200,l),
(50,200,l),
(50,0,l)
);
},
{
pos = (380,0);
ref = "common-arc";
scale = (-1,1);
},
{
closed = 1;
nodes = (
(380,380,l),
(380,480,l),
(50,480,l),
(50,380,l)
);
}
);
width = 405;
}
);
unicode = 104;
},
{
glyphname = i;
kernLeft = i;
kernRight = i;
lastChange = "2023-05-27 14:25:54 +0000";
layers = (
{
layerId = m01;
shapes = (
{
closed = 1;
nodes = (
(200,90,l),
(220,90,l),
(220,480,l),
(200,480,l)
);
},
{
closed = 1;
nodes = (
(80,290,l),
(80,270,l),
(210,320,l),
(210,340,l)
);
},
{
pos = (-30,-10);
ref = "common-hook4";
}
);
width = 280;
},
{
layerId = "5DCAC9C2-0545-46AC-AFFE-31028D6C40EF";
shapes = (
{
closed = 1;
nodes = (
(205,130,l),
(305,130,l),
(305,500,l),
(205,500,l)
);
},
{
closed = 1;
nodes = (
(75,320,l),
(75,220,l),
(255,290,l),
(255,390,l)
);
},
{
pos = (-25,-10);
ref = "common-hook4";
}
);
width = 355;
},
{
associatedMasterId = m01;
attr = {
axisRules = (
{
},
{
max = 1;
min = 0.5;
}
);
};
layerId = "27ADCF29-DD9C-4A5A-98E1-84C3AA394A2A";
name = "23年5月12日 09:33";
shapes = (
{
closed = 1;
nodes = (
(200,90,l),
(220,90,l),
(220,480,l),
(200,480,l)
);
},
{
closed = 1;
nodes = (
(80,290,l),
(80,270,l),
(210,320,l),
(210,340,l)
);
},
{
pos = (-30,-10);
ref = "common-hook4";
},
{
pos = (210,480);
ref = "serif-top";
}
);
width = 280;
},
{
associatedMasterId = "5DCAC9C2-0545-46AC-AFFE-31028D6C40EF";
attr = {
axisRules = (
{
},
{
max = 1;
min = 0.5;
}
);
};
layerId = "9319B711-700F-410C-AE96-0894139FE5EF";
name = "23年5月12日 09:33";
shapes = (
{
closed = 1;
nodes = (
(205,130,l),
(305,130,l),
(305,500,l),
(205,500,l)
);
},
{
closed = 1;
nodes = (
(75,320,l),
(75,220,l),
(255,290,l),
(255,390,l)
);
},
{
pos = (-25,-10);
ref = "common-hook4";
},
{
pos = (255,500);
ref = "serif-top";
}
);
width = 355;
}
);
unicode = 105;
},
{
glyphname = j;
kernLeft = j;
kernRight = j;
lastChange = "2023-05-27 10:58:02 +0000";
layers = (
{
layerId = m01;
shapes = (
{
closed = 1;
nodes = (
(70,0,l),
(70,280,ls),
(70,420,o),
(130,470,o),
(200,470,cs),
(270,470,o),
(330,420,o),
(330,330,c),
(350,330,l),
(350,430,o),
(280,490,o),
(200,490,cs),
(120,490,o),
(50,430,o),
(50,280,cs),
(50,0,l)
);
}
);
width = 370;
},
{
layerId = "5DCAC9C2-0545-46AC-AFFE-31028D6C40EF";
shapes = (
{
closed = 1;
nodes = (
(140,0,l),
(140,240,ls),
(140,350,o),
(180,390,o),
(230,390,cs),
(280,390,o),
(320,360,o),
(320,290,c),
(420,290,l),
(420,420,o),
(340,490,o),
(230,490,cs),
(120,490,o),
(40,420,o),
(40,240,cs),
(40,0,l)
);
}
);
width = 445;
},
{
associatedMasterId = m01;
attr = {
axisRules = (
{
},
{
max = 1;
min = 0.5;
}
);
};
layerId = "E7361AA1-5ACD-46E7-98FA-D985FAE0AC07";
name = "23年5月12日 09:35";
shapes = (
{
closed = 1;
nodes = (
(70,0,l),
(70,280,ls),
(70,420,o),
(130,470,o),
(200,470,cs),
(270,470,o),
(330,420,o),
(330,330,c),
(350,330,l),
(350,430,o),
(280,490,o),
(200,490,cs),
(120,490,o),
(50,430,o),
(50,280,cs),
(50,0,l)
);
},
{
pos = (60,0);
ref = "serif-bottom";
}
);
width = 370;
},
{
associatedMasterId = "5DCAC9C2-0545-46AC-AFFE-31028D6C40EF";
attr = {
axisRules = (
{
},
{
max = 1;
min = 0.5;
}
);
};
layerId = "1CFC4FC8-EC0F-432D-A76B-3883D89C1A60";
name = "23年5月12日 09:35";
shapes = (
{
closed = 1;
nodes = (
(140,0,l),
(140,240,ls),
(140,350,o),
(180,390,o),
(230,390,cs),
(280,390,o),
(320,360,o),
(320,290,c),
(420,290,l),
(420,420,o),
(340,490,o),
(230,490,cs),
(120,490,o),
(40,420,o),
(40,240,cs),
(40,0,l)
);
},
{
pos = (90,0);
ref = "serif-bottom";
}
);
width = 445;
}
);
unicode = 106;
},
{
glyphname = k;
kernLeft = k;
kernRight = l;
lastChange = "2023-05-27 11:02:09 +0000";
layers = (
{
layerId = m01;
shapes = (
{
closed = 1;
nodes = (
(310,260,l),
(160,260,o),
(90,330,o),
(90,480,c),
(70,480,l),
(70,310,o),
(150,240,o),
(310,240,c)
);
},
{
pos = (-30,-150);
ref = "common-hook3";
},
{
closed = 1;
nodes = (
(320,-10,l),
(320,480,l),
(300,480,l),
(300,-10,l)
);
}
);
width = 380;
},
{
layerId = "5DCAC9C2-0545-46AC-AFFE-31028D6C40EF";
shapes = (
{
closed = 1;
nodes = (
(350,300,l),
(190,300,o),
(160,340,o),
(160,490,c),
(60,490,l),
(60,270,o),
(160,200,o),
(350,200,c)
);
},
{
pos = (-20,-150);
ref = "common-hook3";
},
{
closed = 1;
nodes = (
(400,50,l),
(400,490,l),
(300,490,l),
(300,50,l)
);
}
);
width = 450;
},
{
associatedMasterId = m01;
attr = {
axisRules = (
{
},
{
max = 1;
min = 0.5;
}
);
};
layerId = "B11FCCA6-177D-4EB9-8F3F-73AFEC868529";
name = "23年5月12日 09:38";
shapes = (
{
closed = 1;
nodes = (
(310,260,l),
(160,260,o),
(90,330,o),
(90,480,c),
(70,480,l),
(70,310,o),
(150,240,o),
(310,240,c)
);
},
{
pos = (-30,-150);
ref = "common-hook3";
},
{
closed = 1;
nodes = (
(320,-10,l),
(320,480,l),
(300,480,l),
(300,-10,l)
);
},
{
pos = (80,480);
ref = "serif-top";
},
{
pos = (310,480);
ref = "serif-top";
}
);
width = 380;
},
{
associatedMasterId = "5DCAC9C2-0545-46AC-AFFE-31028D6C40EF";
attr = {
axisRules = (
{
},
{
max = 1;
min = 0.5;
}
);
};
layerId = "A668AF36-7E0A-4929-88B7-4944C2BE94A2";
name = "23年5月12日 09:38";
shapes = (
{
closed = 1;
nodes = (
(350,300,l),
(190,300,o),
(160,340,o),
(160,490,c),
(60,490,l),
(60,270,o),
(160,200,o),
(350,200,c)
);
},
{
pos = (-20,-150);
ref = "common-hook3";
},
{
closed = 1;
nodes = (
(400,50,l),
(400,490,l),
(300,490,l),
(300,50,l)
);
},
{
pos = (110,490);
ref = "serif-top";
},
{
pos = (350,490);
ref = "serif-top";
}
);
width = 450;
}
);
unicode = 107;
},
{
glyphname = l;
kernLeft = l;
kernRight = l;
lastChange = "2023-05-27 11:00:23 +0000";
layers = (
{
layerId = m01;
shapes = (
{
closed = 1;
nodes = (
(320,-10,l),
(320,480,l),
(110,480,l),
(110,460,l),
(300,460,l),
(300,-10,l)
);
},
{
pos = (-30,-150);
ref = "common-hook3";
}
);
width = 380;
},
{
layerId = "5DCAC9C2-0545-46AC-AFFE-31028D6C40EF";
shapes = (
{
closed = 1;
nodes = (
(395,50,l),
(395,480,l),
(125,480,l),
(125,380,l),
(295,380,l),
(295,50,l)
);
},
{
pos = (-25,-150);
ref = "common-hook3";
}
);
width = 445;
}
);
unicode = 108;
},
{
glyphname = m;
kernLeft = t;
kernRight = n;
lastChange = "2023-05-27 14:37:47 +0000";
layers = (
{
layerId = m01;
shapes = (
{
pos = (110,0);
ref = n;
},
{
closed = 1;
nodes = (
(60,0,l),
(80,0,l),
(80,480,l),
(60,480,l)
);
}
);
width = 470;
},
{
layerId = "5DCAC9C2-0545-46AC-AFFE-31028D6C40EF";
shapes = (
{
pos = (160,0);
ref = n;
},
{
closed = 1;
nodes = (
(50,0,l),
(150,0,l),
(150,490,l),
(50,490,l)
);
}
);
width = 600;
},
{
associatedMasterId = m01;
attr = {
axisRules = (
{
},
{
max = 1;
min = 0.5;
}
);
};
layerId = "172F4100-2B84-4170-BD83-8A1BDF77B52E";
name = "23年5月12日 09:40";
shapes = (
{
closed = 1;
nodes = (
(80,0,l),
(80,480,l),
(60,480,l),
(60,0,l)
);
},
{
pos = (140,0);
ref = n;
},
{
pos = (70,0);
ref = "serif-bottom";
},
{
pos = (70,480);
ref = "serif-top";
}
);
width = 500;
},
{
associatedMasterId = "5DCAC9C2-0545-46AC-AFFE-31028D6C40EF";
attr = {
axisRules = (
{
},
{
max = 1;
min = 0.5;
}
);
};
layerId = "849F5902-4983-4855-8392-D0DA4D8C9657";
name = "23年5月12日 09:40";
shapes = (
{
closed = 1;
nodes = (
(150,0,l),
(150,490,l),
(50,490,l),
(50,0,l)
);
},
{
pos = (170,0);
ref = n;
},
{
pos = (100,0);
ref = "serif-bottom";
},
{
pos = (100,490);
ref = "serif-top";
}
);
width = 630;
}
);
unicode = 109;
},
{
glyphname = n;
kernLeft = t;
kernRight = n;
lastChange = "2023-05-27 20:02:49 +0000";
layers = (
{
layerId = m01;
shapes = (
{
closed = 1;
nodes = (
(80,0,l),
(80,480,l),
(60,480,l),
(60,0,l)
);
},
{
closed = 1;
nodes = (
(331,445,o),
(340,454,o),
(340,465,cs),
(340,476,o),
(331,485,o),
(320,485,cs),
(309,485,o),
(300,476,o),
(300,465,cs),
(300,454,o),
(309,445,o),
(320,445,cs)
);
},
{
pos = (30,0);
ref = "common-arc2";
}
);
width = 370;
},
{
layerId = "5DCAC9C2-0545-46AC-AFFE-31028D6C40EF";
shapes = (
{
closed = 1;
nodes = (
(150,0,l),
(150,490,l),
(50,490,l),
(50,0,l)
);
},
{
closed = 1;
nodes = (
(388,390,o),
(410,412,o),
(410,440,cs),
(410,468,o),
(388,490,o),
(360,490,cs),
(332,490,o),
(310,468,o),
(310,440,cs),
(310,412,o),
(332,390,o),
(360,390,cs)
);
},
{
pos = (50,0);
ref = "common-arc2";
}
);
width = 440;
},
{
associatedMasterId = m01;
attr = {
axisRules = (
{
},
{
max = 1;
min = 0.5;
}
);
};
layerId = "576CBD1E-A250-4DC8-97E5-A67FA12FBDF4";
name = "23年5月12日 09:39";
shapes = (
{
closed = 1;
nodes = (
(80,0,l),
(80,480,l),
(60,480,l),
(60,0,l)
);
},
{
closed = 1;
nodes = (
(331,445,o),
(340,454,o),
(340,465,cs),
(340,476,o),
(331,485,o),
(320,485,cs),
(309,485,o),
(300,476,o),
(300,465,cs),
(300,454,o),
(309,445,o),
(320,445,cs)
);
},
{
pos = (30,0);
ref = "common-arc2";
},
{
pos = (70,480);
ref = "serif-top";
},
{
pos = (70,0);
ref = "serif-bottom";
},
{
pos = (330,0);
ref = "serif-bottom";
}
);
width = 370;
},
{
associatedMasterId = "5DCAC9C2-0545-46AC-AFFE-31028D6C40EF";
attr = {
axisRules = (
{
},
{
max = 1;
min = 0.5;
}
);
};
layerId = "46582810-7B4E-4C86-B1AD-C7BECFC5C422";
name = "23年5月12日 09:39";
shapes = (
{
closed = 1;
nodes = (
(150,0,l),
(150,490,l),
(50,490,l),
(50,0,l)
);
},
{
closed = 1;
nodes = (
(388,390,o),
(410,412,o),
(410,440,cs),
(410,468,o),
(388,490,o),
(360,490,cs),
(332,490,o),
(310,468,o),
(310,440,cs),
(310,412,o),
(332,390,o),
(360,390,cs)
);
},
{
pos = (50,0);
ref = "common-arc2";
},
{
pos = (100,490);
ref = "serif-top";
},
{
pos = (100,0);
ref = "serif-bottom";
},
{
pos = (360,0);
ref = "serif-bottom";
}
);
width = 440;
}
);
unicode = 110;
},
{
glyphname = p;
kernLeft = t;
kernRight = p;
lastChange = "2023-05-27 11:10:16 +0000";
layers = (
{
layerId = m01;
shapes = (
{
pos = (10,470);
ref = "common-bp";
scale = (1,-1);
},
{
closed = 0;
nodes = (
(210,170,l)
);
}
);
width = 390;
},
{
layerId = "5DCAC9C2-0545-46AC-AFFE-31028D6C40EF";
shapes = (
{
pos = (0,470);
ref = "common-bp";
scale = (1,-1);
},
{
closed = 0;
nodes = (
(100,200,l)
);
}
);
width = 415;
},
{
annotations = (
{
pos = (176,579);
text = "我不知道为什么这里不能直接引用衬线，一定要释放，或许是这个软件的 bug 吧。";
type = Text;
},
{
pos = (436,561);
type = Text;
}
);
associatedMasterId = m01;
attr = {
axisRules = (
{
},
{
max = 1;
min = 0.5;
}
);
};
layerId = "BD84875E-45CD-4C6A-8ACE-A387DFF74CE7";
name = "23年5月12日 09:45";
shapes = (
{
pos = (10,470);
ref = "common-bp";
scale = (1,-1);
},
{
closed = 0;
nodes = (
(210,170,l)
);
},
{
closed = 1;
nodes = (
(30,550,l),
(110,550,l),
(110,570,l),
(30,570,l)
);
}
);
width = 390;
},
{
associatedMasterId = "5DCAC9C2-0545-46AC-AFFE-31028D6C40EF";
attr = {
axisRules = (
{
},
{
max = 1;
min = 0.5;
}
);
};
layerId = "FEA5AE02-9B18-4DE3-BFE5-A22263946214";
name = "23年5月12日 09:45";
shapes = (
{
pos = (0,470);
ref = "common-bp";
scale = (1,-1);
},
{
closed = 0;
nodes = (
(100,200,l)
);
},
{
closed = 1;
nodes = (
(20,520,l),
(180,520,l),
(180,570,l),
(20,570,l)
);
}
);
width = 415;
}
);
unicode = 112;
},
{
glyphname = q;
kernLeft = q;
kernRight = q;
lastChange = "2023-05-27 14:26:40 +0000";
layers = (
{
layerId = m01;
shapes = (
{
closed = 1;
nodes = (
(160,460,l),
(180,460,l),
(180,580,l),
(160,580,l)
);
},
{
closed = 1;
nodes = (
(160,460,l),
(160,360,o),
(110,250,o),
(20,250,c),
(20,230,l),
(120,230,o),
(180,338,o),
(180,460,c),
(170,460,l)
);
},
{
closed = 1;
nodes = (
(160,460,l),
(160,338,o),
(220,230,o),
(320,230,c),
(320,250,l),
(230,250,o),
(180,360,o),
(180,460,c),
(170,460,l)
);
},
{
closed = 1;
nodes = (
(300,75,l),
(320,75,l),
(320,240,l),
(300,240,l)
);
},
{
pos = (130,-5);
ref = "common-hook2";
}
);
width = 360;
},
{
layerId = "5DCAC9C2-0545-46AC-AFFE-31028D6C40EF";
shapes = (
{
closed = 1;
nodes = (
(145,480,l),
(245,480,l),
(245,580,l),
(145,580,l)
);
},
{
closed = 1;
nodes = (
(145,480,l),
(145,350,o),
(85,300,o),
(25,300,c),
(25,200,l),
(145,200,o),
(245,300,o),
(245,480,c),
(195,480,l)
);
},
{
closed = 1;
nodes = (
(145,480,l),
(145,300,o),
(245,200,o),
(365,200,c),
(365,300,l),
(305,300,o),
(245,350,o),
(245,480,c),
(195,480,l)
);
},
{
closed = 1;
nodes = (
(265,120,l),
(365,120,l),
(365,240,l),
(265,240,l)
);
},
{
pos = (75,-10);
ref = "common-hook2";
}
);
width = 395;
},
{
associatedMasterId = m01;
attr = {
axisRules = (
{
},
{
max = 1;
min = 0.5;
}
);
};
layerId = "4CED971D-F1DD-408E-80FE-C95315B57EE5";
name = "23年5月12日 09:48";
shapes = (
{
closed = 1;
nodes = (
(160,460,l),
(180,460,l),
(180,580,l),
(160,580,l)
);
},
{
closed = 1;
nodes = (
(160,460,l),
(160,360,o),
(110,250,o),
(20,250,c),
(20,230,l),
(120,230,o),
(180,338,o),
(180,460,c),
(170,460,l)
);
},
{
closed = 1;
nodes = (
(160,460,l),
(160,338,o),
(220,230,o),
(320,230,c),
(320,250,l),
(230,250,o),
(180,360,o),
(180,460,c),
(170,460,l)
);
},
{
closed = 1;
nodes = (
(300,75,l),
(320,75,l),
(320,240,l),
(300,240,l)
);
},
{
pos = (130,-5);
ref = "common-hook2";
},
{
pos = (170,580);
ref = "serif-top";
}
);
width = 360;
},
{
associatedMasterId = "5DCAC9C2-0545-46AC-AFFE-31028D6C40EF";
attr = {
axisRules = (
{
},
{
max = 1;
min = 0.5;
}
);
};
layerId = "48EC2EE7-663D-4119-9FD3-71BC10DD7979";
name = "23年5月12日 09:48";
shapes = (
{
closed = 1;
nodes = (
(145,480,l),
(245,480,l),
(245,580,l),
(145,580,l)
);
},
{
closed = 1;
nodes = (
(145,480,l),
(145,350,o),
(85,300,o),
(25,300,c),
(25,200,l),
(145,200,o),
(245,300,o),
(245,480,c),
(195,480,l)
);
},
{
closed = 1;
nodes = (
(145,480,l),
(145,300,o),
(245,200,o),
(365,200,c),
(365,300,l),
(305,300,o),
(245,350,o),
(245,480,c),
(195,480,l)
);
},
{
closed = 1;
nodes = (
(265,120,l),
(365,120,l),
(365,240,l),
(265,240,l)
);
},
{
pos = (75,-10);
ref = "common-hook2";
},
{
pos = (195,580);
ref = "serif-top";
}
);
width = 395;
}
);
unicode = 113;
},
{
glyphname = r;
kernLeft = r;
kernRight = i;
lastChange = "2023-05-27 14:27:12 +0000";
layers = (
{
layerId = m01;
shapes = (
{
closed = 1;
nodes = (
(300,310,l),
(130,310,o),
(30,240,o),
(30,0,c),
(50,0,l),
(50,230,o),
(150,290,o),
(300,290,c)
);
},
{
pos = (120,-5);
ref = "common-hook2";
},
{
closed = 1;
nodes = (
(290,75,l),
(310,75,l),
(310,480,l),
(290,480,l)
);
}
);
width = 370;
},
{
layerId = "5DCAC9C2-0545-46AC-AFFE-31028D6C40EF";
shapes = (
{
closed = 1;
nodes = (
(335,350,l),
(115,350,o),
(25,260,o),
(25,0,c),
(125,0,l),
(125,210,o),
(155,250,o),
(335,250,c)
);
},
{
pos = (115,-5);
ref = "common-hook2";
},
{
closed = 1;
nodes = (
(305,125,l),
(405,125,l),
(405,490,l),
(305,490,l)
);
}
);
width = 455;
},
{
associatedMasterId = m01;
attr = {
axisRules = (
{
},
{
max = 1;
min = 0.5;
}
);
};
layerId = "985561F9-08DC-4C70-AD29-5E70E703DF7E";
name = "23年5月12日 09:52";
shapes = (
{
closed = 1;
nodes = (
(300,310,l),
(130,310,o),
(30,240,o),
(30,0,c),
(50,0,l),
(50,230,o),
(150,290,o),
(300,290,c)
);
},
{
pos = (120,-5);
ref = "common-hook2";
},
{
closed = 1;
nodes = (
(290,75,l),
(310,75,l),
(310,480,l),
(290,480,l)
);
},
{
pos = (40,0);
ref = "serif-bottom";
},
{
pos = (300,480);
ref = "serif-top";
}
);
width = 370;
},
{
associatedMasterId = "5DCAC9C2-0545-46AC-AFFE-31028D6C40EF";
attr = {
axisRules = (
{
},
{
max = 1;
min = 0.5;
}
);
};
layerId = "CFB24C7C-B18D-4741-B1F2-AAF06DD3F2B8";
name = "23年5月12日 09:52";
shapes = (
{
closed = 1;
nodes = (
(340,350,l),
(120,350,o),
(30,260,o),
(30,0,c),
(130,0,l),
(130,210,o),
(160,250,o),
(340,250,c)
);
},
{
pos = (120,-5);
ref = "common-hook2";
},
{
closed = 1;
nodes = (
(310,125,l),
(410,125,l),
(410,490,l),
(310,490,l)
);
},
{
pos = (80,0);
ref = "serif-bottom";
},
{
pos = (360,490);
ref = "serif-top";
}
);
width = 460;
}
);
unicode = 114;
},
{
glyphname = s;
kernLeft = s;
kernRight = i;
lastChange = "2023-05-27 14:27:52 +0000";
layers = (
{
layerId = m01;
shapes = (
{
closed = 1;
nodes = (
(260,70,ls),
(260,30,o),
(240,10,o),
(210,10,cs),
(180,10,o),
(160,30,o),
(160,70,c),
(140,70,l),
(140,20,o),
(170,-10,o),
(210,-10,cs),
(250,-10,o),
(280,20,o),
(280,70,cs),
(280,480,l),
(260,480,l)
);
},
{
closed = 1;
nodes = (
(140,70,l),
(160,70,l),
(160,480,l),
(140,480,l)
);
},
{
pos = (-30,-10);
ref = "common-hook2";
}
);
width = 340;
},
{
layerId = "5DCAC9C2-0545-46AC-AFFE-31028D6C40EF";
shapes = (
{
closed = 1;
nodes = (
(345,120,ls),
(345,100,o),
(325,90,o),
(305,90,cs),
(285,90,o),
(265,100,o),
(265,120,c),
(205,120,l),
(205,40,o),
(255,-10,o),
(325,-10,cs),
(395,-10,o),
(445,40,o),
(445,120,cs),
(445,490,l),
(345,490,l)
);
},
{
closed = 1;
nodes = (
(165,120,l),
(265,120,l),
(265,490,l),
(165,490,l)
);
},
{
pos = (-25,-10);
ref = "common-hook2";
}
);
width = 495;
},
{
associatedMasterId = m01;
attr = {
axisRules = (
{
},
{
max = 1;
min = 0.5;
}
);
};
layerId = "7AB7FF12-B57C-4214-9CB0-0878127D6E68";
name = "23年5月12日 09:54";
shapes = (
{
closed = 1;
nodes = (
(260,70,ls),
(260,30,o),
(240,10,o),
(210,10,cs),
(180,10,o),
(160,30,o),
(160,70,c),
(140,70,l),
(140,20,o),
(170,-10,o),
(210,-10,cs),
(250,-10,o),
(280,20,o),
(280,70,cs),
(280,480,l),
(260,480,l)
);
},
{
closed = 1;
nodes = (
(140,70,l),
(160,70,l),
(160,480,l),
(140,480,l)
);
},
{
pos = (-30,-10);
ref = "common-hook2";
},
{
pos = (150,480);
ref = "serif-top";
},
{
pos = (270,480);
ref = "serif-top";
}
);
width = 340;
},
{
associatedMasterId = "5DCAC9C2-0545-46AC-AFFE-31028D6C40EF";
attr = {
axisRules = (
{
},
{
max = 1;
min = 0.5;
}
);
};
layerId = "72E19FA2-B2E4-435B-8F4D-637A39F9F0AA";
name = "23年5月12日 09:54";
shapes = (
{
closed = 1;
nodes = (
(355,120,ls),
(355,100,o),
(335,90,o),
(315,90,cs),
(285,90,o),
(265,100,o),
(265,120,c),
(215,120,l),
(215,40,o),
(265,-10,o),
(335,-10,cs),
(405,-10,o),
(455,40,o),
(455,120,cs),
(455,490,l),
(355,490,l)
);
},
{
closed = 1;
nodes = (
(165,120,l),
(265,120,l),
(265,490,l),
(165,490,l)
);
},
{
pos = (-25,-10);
ref = "common-hook2";
},
{
pos = (215,490);
ref = "serif-top";
},
{
pos = (405,490);
ref = "serif-top";
}
);
width = 505;
}
);
unicode = 115;
},
{
glyphname = t;
kernLeft = t;
kernRight = t;
lastChange = "2023-05-27 11:48:17 +0000";
layers = (
{
layerId = m01;
shapes = (
{
closed = 1;
nodes = (
(60,0,l),
(80,0,l),
(80,480,l),
(60,480,l)
);
},
{
closed = 1;
nodes = (
(200,0,l),
(220,0,l),
(220,480,l),
(200,480,l)
);
}
);
width = 280;
},
{
layerId = "5DCAC9C2-0545-46AC-AFFE-31028D6C40EF";
shapes = (
{
closed = 1;
nodes = (
(50,0,l),
(150,0,l),
(150,480,l),
(50,480,l)
);
},
{
closed = 1;
nodes = (
(240,0,l),
(340,0,l),
(340,480,l),
(240,480,l)
);
}
);
width = 390;
},
{
associatedMasterId = m01;
attr = {
axisRules = (
{
},
{
max = 1;
min = 0.5;
}
);
};
layerId = "EA1D0F28-B644-4E77-8DF4-AEEF45DF6288";
name = "23年5月12日 09:58";
shapes = (
{
closed = 1;
nodes = (
(60,0,l),
(80,0,l),
(80,480,l),
(60,480,l)
);
},
{
closed = 1;
nodes = (
(200,0,l),
(220,0,l),
(220,480,l),
(200,480,l)
);
},
{
pos = (70,0);
ref = "serif-bottom";
},
{
pos = (210,0);
ref = "serif-bottom";
},
{
pos = (70,480);
ref = "serif-top";
},
{
pos = (210,480);
ref = "serif-top";
}
);
width = 280;
},
{
associatedMasterId = "5DCAC9C2-0545-46AC-AFFE-31028D6C40EF";
attr = {
axisRules = (
{
},
{
max = 1;
min = 0.5;
}
);
};
layerId = "B7A601D8-6DDE-491A-BD70-BF32B9F208E2";
name = "23年5月12日 09:58";
shapes = (
{
closed = 1;
nodes = (
(50,0,l),
(150,0,l),
(150,480,l),
(50,480,l)
);
},
{
closed = 1;
nodes = (
(250,0,l),
(350,0,l),
(350,480,l),
(250,480,l)
);
},
{
pos = (100,0);
ref = "serif-bottom";
},
{
pos = (300,0);
ref = "serif-bottom";
},
{
pos = (100,480);
ref = "serif-top";
},
{
pos = (300,480);
ref = "serif-top";
}
);
width = 400;
}
);
unicode = 116;
},
{
glyphname = u;
kernLeft = u;
kernRight = u;
lastChange = "2023-05-27 15:11:42 +0000";
layers = (
{
layerId = m01;
shapes = (
{
pos = (0,-10);
ref = "common-hook3";
},
{
closed = 1;
nodes = (
(70,480,l),
(70,460,l),
(330,460,l),
(330,130,l),
(350,130,l),
(350,480,l)
);
}
);
width = 410;
},
{
layerId = "5DCAC9C2-0545-46AC-AFFE-31028D6C40EF";
shapes = (
{
pos = (-10,-10);
ref = "common-hook3";
},
{
closed = 1;
nodes = (
(60,480,l),
(60,380,l),
(310,380,l),
(310,190,l),
(410,190,l),
(410,480,l)
);
}
);
width = 460;
}
);
unicode = 117;
},
{
glyphname = v;
kernLeft = l;
kernRight = l;
lastChange = "2023-05-27 13:26:55 +0000";
layers = (
{
layerId = m01;
shapes = (
{
closed = 1;
nodes = (
(320,-10,l),
(320,480,l),
(300,480,l),
(300,-10,l)
);
},
{
pos = (-30,-150);
ref = "common-hook3";
},
{
closed = 1;
nodes = (
(170,240,l),
(170,480,l),
(150,480,l),
(150,240,l)
);
}
);
width = 380;
},
{
layerId = "5DCAC9C2-0545-46AC-AFFE-31028D6C40EF";
shapes = (
{
closed = 1;
nodes = (
(395,50,l),
(395,480,l),
(295,480,l),
(295,50,l)
);
},
{
pos = (-25,-150);
ref = "common-hook3";
},
{
closed = 1;
nodes = (
(225,240,l),
(225,480,l),
(125,480,l),
(125,240,l)
);
}
);
width = 445;
},
{
associatedMasterId = m01;
attr = {
axisRules = (
{
},
{
max = 1;
min = 0.5;
}
);
};
layerId = "59C18B67-4E13-4DB5-AACE-65F5C90184E9";
name = "23年5月12日 10:00";
shapes = (
{
closed = 1;
nodes = (
(320,-10,l),
(320,480,l),
(300,480,l),
(300,-10,l)
);
},
{
pos = (-30,-150);
ref = "common-hook3";
},
{
closed = 1;
nodes = (
(170,240,l),
(170,480,l),
(150,480,l),
(150,240,l)
);
},
{
pos = (160,240);
ref = "serif-bottom";
},
{
pos = (160,480);
ref = "serif-top";
},
{
pos = (310,480);
ref = "serif-top";
}
);
width = 380;
},
{
associatedMasterId = "5DCAC9C2-0545-46AC-AFFE-31028D6C40EF";
attr = {
axisRules = (
{
},
{
max = 1;
min = 0.5;
}
);
};
layerId = "479DA258-BE2B-48E8-8F7E-585F571736C2";
name = "23年5月12日 10:00";
shapes = (
{
closed = 1;
nodes = (
(395,50,l),
(395,480,l),
(295,480,l),
(295,50,l)
);
},
{
pos = (-25,-150);
ref = "common-hook3";
},
{
closed = 1;
nodes = (
(205,220,l),
(205,480,l),
(105,480,l),
(105,220,l)
);
},
{
pos = (155,220);
ref = "serif-bottom";
},
{
pos = (155,480);
ref = "serif-top";
},
{
pos = (345,480);
ref = "serif-top";
}
);
width = 445;
}
);
unicode = 118;
},
{
glyphname = w;
kernLeft = w;
kernRight = w;
lastChange = "2023-05-27 20:13:02 +0000";
layers = (
{
layerId = m01;
shapes = (
{
closed = 1;
nodes = (
(160,400,l),
(160,440,o),
(180,460,o),
(210,460,cs),
(240,460,o),
(260,440,o),
(260,400,c),
(280,400,l),
(280,450,o),
(250,480,o),
(210,480,cs),
(170,480,o),
(140,450,o),
(140,400,c)
);
},
{
pos = (-30,-150);
ref = "common-hook4";
},
{
closed = 1;
nodes = (
(220,-50,l),
(220,470,l),
(200,470,l),
(200,-50,l)
);
}
);
width = 300;
},
{
layerId = "5DCAC9C2-0545-46AC-AFFE-31028D6C40EF";
shapes = (
{
closed = 1;
nodes = (
(175,310,l),
(175,380,o),
(195,400,o),
(255,400,cs),
(315,400,o),
(335,380,o),
(335,310,c),
(415,310,l),
(415,410,o),
(385,490,o),
(255,490,cs),
(125,490,o),
(95,410,o),
(95,310,c)
);
},
{
pos = (-25,-150);
ref = "common-hook4";
},
{
closed = 1;
nodes = (
(305,-10,l),
(305,430,l),
(205,430,l),
(205,-10,l)
);
}
);
width = 440;
}
);
unicode = 119;
},
{
glyphname = x;
kernLeft = t;
kernRight = t;
lastChange = "2023-05-27 13:28:42 +0000";
layers = (
{
layerId = m01;
shapes = (
{
pos = (30,0);
ref = "common-arc2";
},
{
closed = 1;
nodes = (
(60,0,l),
(80,0,l),
(80,480,l),
(60,480,l)
);
},
{
closed = 1;
nodes = (
(320,0,l),
(340,0,l),
(340,480,l),
(320,480,l)
);
}
);
width = 400;
},
{
layerId = "5DCAC9C2-0545-46AC-AFFE-31028D6C40EF";
shapes = (
{
pos = (50,0);
ref = "common-arc2";
},
{
closed = 1;
nodes = (
(50,0,l),
(150,0,l),
(150,480,l),
(50,480,l)
);
},
{
closed = 1;
nodes = (
(310,0,l),
(410,0,l),
(410,480,l),
(310,480,l)
);
}
);
width = 460;
},
{
associatedMasterId = m01;
attr = {
axisRules = (
{
},
{
max = 1;
min = 0.5;
}
);
};
layerId = "6661F312-D7C3-44E2-BB44-90AABA652380";
name = "23年5月12日 10:06";
shapes = (
{
pos = (30,0);
ref = "common-arc2";
},
{
closed = 1;
nodes = (
(60,0,l),
(80,0,l),
(80,480,l),
(60,480,l)
);
},
{
closed = 1;
nodes = (
(320,0,l),
(340,0,l),
(340,480,l),
(320,480,l)
);
},
{
pos = (70,0);
ref = "serif-bottom";
},
{
pos = (330,0);
ref = "serif-bottom";
},
{
pos = (70,480);
ref = "serif-top";
},
{
pos = (330,480);
ref = "serif-top";
}
);
width = 400;
},
{
associatedMasterId = "5DCAC9C2-0545-46AC-AFFE-31028D6C40EF";
attr = {
axisRules = (
{
},
{
max = 1;
min = 0.5;
}
);
};
layerId = "774B33C2-2A02-46A6-93E9-8BF0054DD539";
name = "23年5月12日 10:06";
shapes = (
{
pos = (50,0);
ref = "common-arc2";
},
{
closed = 1;
nodes = (
(50,0,l),
(150,0,l),
(150,480,l),
(50,480,l)
);
},
{
closed = 1;
nodes = (
(310,0,l),
(410,0,l),
(410,480,l),
(310,480,l)
);
},
{
pos = (100,0);
ref = "serif-bottom";
},
{
pos = (360,0);
ref = "serif-bottom";
},
{
pos = (100,480);
ref = "serif-top";
},
{
pos = (360,480);
ref = "serif-top";
}
);
width = 460;
}
);
unicode = 120;
},
{
glyphname = y;
kernLeft = a;
kernRight = a;
lastChange = "2023-05-27 20:13:25 +0000";
layers = (
{
layerId = m01;
shapes = (
{
ref = a;
},
{
closed = 1;
nodes = (
(181,520,o),
(190,529,o),
(190,540,cs),
(190,551,o),
(181,560,o),
(170,560,cs),
(159,560,o),
(150,551,o),
(150,540,cs),
(150,529,o),
(159,520,o),
(170,520,cs)
);
}
);
width = 340;
},
{
layerId = "5DCAC9C2-0545-46AC-AFFE-31028D6C40EF";
shapes = (
{
ref = a;
},
{
closed = 1;
nodes = (
(223,490,o),
(245,512,o),
(245,540,cs),
(245,568,o),
(223,590,o),
(195,590,cs),
(167,590,o),
(145,568,o),
(145,540,cs),
(145,512,o),
(167,490,o),
(195,490,cs)
);
}
);
width = 390;
},
{
associatedMasterId = m01;
attr = {
axisRules = (
{
},
{
max = 1;
min = 0.5;
}
);
};
layerId = "1A7CB470-6993-424B-B0C3-271E85CCEB9B";
name = "23年5月12日 10:07";
shapes = (
{
ref = a;
},
{
closed = 1;
nodes = (
(181,520,o),
(190,529,o),
(190,540,cs),
(190,551,o),
(181,560,o),
(170,560,cs),
(159,560,o),
(150,551,o),
(150,540,cs),
(150,529,o),
(159,520,o),
(170,520,cs)
);
}
);
width = 340;
},
{
associatedMasterId = "5DCAC9C2-0545-46AC-AFFE-31028D6C40EF";
attr = {
axisRules = (
{
},
{
max = 1;
min = 0.5;
}
);
};
layerId = "BA0BB4AB-4141-48D4-97CA-707F3591FFBC";
name = "23年5月12日 10:07";
shapes = (
{
ref = a;
},
{
closed = 1;
nodes = (
(223,490,o),
(245,512,o),
(245,540,cs),
(245,568,o),
(223,590,o),
(195,590,cs),
(167,590,o),
(145,568,o),
(145,540,cs),
(145,512,o),
(167,490,o),
(195,490,cs)
);
}
);
width = 390;
}
);
unicode = 121;
},
{
glyphname = z;
kernLeft = o;
kernRight = z;
lastChange = "2023-05-27 13:36:22 +0000";
layers = (
{
layerId = m01;
shapes = (
{
closed = 1;
nodes = (
(70,20,ls),
(160,20,o),
(180,170,o),
(180,300,cs),
(180,480,l),
(160,480,l),
(160,300,ls),
(160,170,o),
(150,20,o),
(20,20,c)
);
},
{
closed = 1;
nodes = (
(320,0,l),
(320,20,l),
(20,20,l),
(20,0,l)
);
}
);
width = 340;
},
{
layerId = "5DCAC9C2-0545-46AC-AFFE-31028D6C40EF";
shapes = (
{
closed = 1;
nodes = (
(165,100,ls),
(205,100,o),
(265,170,o),
(265,350,cs),
(265,480,l),
(165,480,l),
(165,350,ls),
(165,170,o),
(95,100,o),
(25,100,c)
);
},
{
closed = 1;
nodes = (
(405,0,l),
(405,100,l),
(25,100,l),
(25,0,l)
);
}
);
width = 430;
},
{
associatedMasterId = m01;
attr = {
axisRules = (
{
},
{
max = 1;
min = 0.5;
}
);
};
layerId = "2AA3934E-2EC6-4455-BAD8-74EAA319FA2F";
name = "23年5月12日 10:09";
shapes = (
{
closed = 1;
nodes = (
(70,20,ls),
(160,20,o),
(180,170,o),
(180,300,cs),
(180,480,l),
(160,480,l),
(160,300,ls),
(160,170,o),
(150,20,o),
(20,20,c)
);
},
{
closed = 1;
nodes = (
(320,0,l),
(320,20,l),
(20,20,l),
(20,0,l)
);
},
{
pos = (170,480);
ref = "serif-top";
}
);
width = 340;
},
{
associatedMasterId = "5DCAC9C2-0545-46AC-AFFE-31028D6C40EF";
attr = {
axisRules = (
{
},
{
max = 1;
min = 0.5;
}
);
};
layerId = "01BE9031-9A2C-47D1-BBE1-057143346A70";
name = "23年5月12日 10:10";
shapes = (
{
closed = 1;
nodes = (
(165,100,ls),
(205,100,o),
(265,170,o),
(265,350,cs),
(265,480,l),
(165,480,l),
(165,350,ls),
(165,170,o),
(95,100,o),
(25,100,c)
);
},
{
closed = 1;
nodes = (
(405,0,l),
(405,100,l),
(25,100,l),
(25,0,l)
);
},
{
pos = (215,480);
ref = "serif-top";
}
);
width = 430;
}
);
unicode = 122;
},
{
glyphname = l.cv01;
kernLeft = l;
kernRight = l;
lastChange = "2024-11-10 17:21:04 +0000";
layers = (
{
layerId = m01;
shapes = (
{
closed = 1;
nodes = (
(320,-10,l),
(320,580,l),
(110,580,l),
(110,560,l),
(300,560,l),
(300,-10,l)
);
},
{
pos = (-30,-150);
ref = "common-hook3";
}
);
width = 380;
},
{
layerId = "5DCAC9C2-0545-46AC-AFFE-31028D6C40EF";
shapes = (
{
closed = 1;
nodes = (
(395,50,l),
(395,600,l),
(125,600,l),
(125,500,l),
(295,500,l),
(295,50,l)
);
},
{
pos = (-25,-150);
ref = "common-hook3";
}
);
width = 445;
}
);
},
{
glyphname = .notdef;
lastChange = "2023-05-27 20:13:46 +0000";
layers = (
{
layerId = m01;
shapes = (
{
closed = 1;
nodes = (
(60,-1,l),
(560,0,l),
(560,700,l),
(60,699,l)
);
},
{
closed = 1;
nodes = (
(545,685,l),
(545,15,l),
(75,14,l),
(75,684,l)
);
},
{
pos = (110,60);
ref = B;
scale = (0.8264,0.8264);
}
);
width = 620;
},
{
layerId = "5DCAC9C2-0545-46AC-AFFE-31028D6C40EF";
shapes = (
{
closed = 1;
nodes = (
(50,0,l),
(600,0,l),
(600,700,l),
(50,700,l)
);
},
{
closed = 1;
nodes = (
(533,634,l),
(533,68,l),
(117,67,l),
(117,633,l)
);
},
{
pos = (133,111);
ref = B;
scale = (0.683,0.683);
}
);
width = 650;
}
);
},
{
glyphname = period;
lastChange = "2023-05-27 14:19:05 +0000";
layers = (
{
layerId = m01;
shapes = (
{
closed = 1;
nodes = (
(81,0,o),
(90,9,o),
(90,20,cs),
(90,31,o),
(81,40,o),
(70,40,cs),
(59,40,o),
(50,31,o),
(50,20,cs),
(50,9,o),
(59,0,o),
(70,0,cs)
);
}
);
width = 140;
},
{
layerId = "5DCAC9C2-0545-46AC-AFFE-31028D6C40EF";
shapes = (
{
closed = 1;
nodes = (
(98,-5,o),
(120,17,o),
(120,45,cs),
(120,73,o),
(98,95,o),
(70,95,cs),
(42,95,o),
(20,73,o),
(20,45,cs),
(20,17,o),
(42,-5,o),
(70,-5,cs)
);
}
);
width = 140;
}
);
unicode = 46;
},
{
glyphname = comma;
lastChange = "2023-05-27 20:15:40 +0000";
layers = (
{
layerId = m01;
shapes = (
{
closed = 1;
nodes = (
(50,-100,l),
(70,-100,l),
(70,30,l),
(50,30,l)
);
}
);
width = 120;
},
{
layerId = "5DCAC9C2-0545-46AC-AFFE-31028D6C40EF";
shapes = (
{
closed = 1;
nodes = (
(20,-100,l),
(100,-100,l),
(100,100,l),
(20,100,l)
);
}
);
width = 120;
}
);
unicode = 44;
},
{
glyphname = quoteright;
lastChange = "2023-05-27 20:16:03 +0000";
layers = (
{
layerId = m01;
shapes = (
{
closed = 1;
nodes = (
(50,520,l),
(70,520,l),
(70,650,l),
(50,650,l)
);
}
);
width = 120;
},
{
layerId = "5DCAC9C2-0545-46AC-AFFE-31028D6C40EF";
shapes = (
{
closed = 1;
nodes = (
(20,480,l),
(100,480,l),
(100,680,l),
(20,680,l)
);
}
);
width = 120;
}
);
unicode = 8217;
},
{
export = 0;
glyphname = "common-arc";
lastChange = "2023-05-06 11:34:15 +0000";
layers = (
{
layerId = m01;
shapes = (
{
closed = 1;
nodes = (
(50,460,l),
(200,460,o),
(310,390,o),
(310,240,c),
(330,240,l),
(330,410,o),
(210,480,o),
(50,480,c),
(50,470,l)
);
}
);
width = 380;
},
{
layerId = "5DCAC9C2-0545-46AC-AFFE-31028D6C40EF";
shapes = (
{
closed = 1;
nodes = (
(50,380,l),
(160,380,o),
(230,350,o),
(230,200,c),
(330,200,l),
(330,420,o),
(220,480,o),
(50,480,c),
(50,430,l)
);
}
);
width = 380;
}
);
},
{
export = 0;
glyphname = "common-arc2";
lastChange = "2023-05-01 10:38:05 +0000";
layers = (
{
layerId = m01;
shapes = (
{
closed = 1;
nodes = (
(40,290,l),
(230,290,o),
(290,280,o),
(290,60,c),
(290,0,l),
(310,0,l),
(310,60,l),
(310,290,o),
(250,310,o),
(40,310,c),
(40,300,l)
);
}
);
width = 360;
},
{
layerId = "5DCAC9C2-0545-46AC-AFFE-31028D6C40EF";
shapes = (
{
closed = 1;
nodes = (
(50,250,l),
(230,250,o),
(260,240,o),
(260,60,c),
(260,0,l),
(360,0,l),
(360,60,l),
(360,310,o),
(290,350,o),
(50,350,c),
(50,300,l)
);
}
);
width = 410;
}
);
},
{
export = 0;
glyphname = "common-arc3";
lastChange = "2023-05-01 10:38:05 +0000";
layers = (
{
layerId = m01;
shapes = (
{
closed = 1;
nodes = (
(70,0,l),
(70,260,o),
(210,410,o),
(550,410,c),
(550,430,l),
(200,430,o),
(50,270,o),
(50,0,c)
);
}
);
width = 600;
},
{
layerId = "5DCAC9C2-0545-46AC-AFFE-31028D6C40EF";
shapes = (
{
closed = 1;
nodes = (
(150,0,l),
(150,250,o),
(240,370,o),
(640,370,c),
(640,470,l),
(180,470,o),
(50,290,o),
(50,0,c)
);
}
);
width = 690;
}
);
},
{
export = 0;
glyphname = "common-bp";
lastChange = "2023-05-06 11:18:15 +0000";
layers = (
{
layerId = m01;
shapes = (
{
closed = 1;
nodes = (
(50,-100,l),
(70,-100,l),
(70,380,l),
(50,380,l)
);
},
{
ref = "common-loop";
}
);
width = 400;
},
{
layerId = "5DCAC9C2-0545-46AC-AFFE-31028D6C40EF";
shapes = (
{
closed = 1;
nodes = (
(50,-100,l),
(150,-100,l),
(150,320,l),
(50,320,l)
);
},
{
ref = "common-loop";
}
);
width = 440;
}
);
},
{
export = 0;
glyphname = "common-hook";
lastChange = "2023-05-25 09:45:15 +0000";
layers = (
{
layerId = m01;
shapes = (
{
closed = 1;
nodes = (
(70,700,o),
(50,680,o),
(50,620,c),
(70,620,l),
(70,670,o),
(80,680,o),
(130,680,c),
(130,700,l)
);
}
);
width = 180;
},
{
layerId = "5DCAC9C2-0545-46AC-AFFE-31028D6C40EF";
shapes = (
{
closed = 1;
nodes = (
(100,700,o),
(50,640,o),
(50,540,c),
(150,540,l),
(150,590,o),
(160,600,o),
(190,600,c),
(190,700,l)
);
}
);
width = 240;
}
);
},
{
export = 0;
glyphname = "common-hook2";
lastChange = "2023-05-06 10:30:27 +0000";
layers = (
{
layerId = m01;
shapes = (
{
closed = 1;
nodes = (
(170,80,l),
(170,40,o),
(150,20,o),
(120,20,cs),
(90,20,o),
(70,40,o),
(70,80,c),
(50,80,l),
(50,30,o),
(80,0,o),
(120,0,cs),
(160,0,o),
(190,30,o),
(190,80,c),
(180,80,l)
);
}
);
width = 240;
},
{
layerId = "5DCAC9C2-0545-46AC-AFFE-31028D6C40EF";
shapes = (
{
closed = 1;
nodes = (
(190,130,l),
(190,114,o),
(181,106,o),
(170,106,cs),
(159,106,o),
(150,114,o),
(150,130,c),
(50,130,l),
(50,50,o),
(100,0,o),
(170,0,cs),
(240,0,o),
(290,50,o),
(290,130,c),
(240,130,l)
);
}
);
width = 340;
}
);
},
{
export = 0;
glyphname = "common-hook3";
lastChange = "2023-05-01 10:38:05 +0000";
layers = (
{
layerId = m01;
shapes = (
{
closed = 1;
nodes = (
(50,70,o),
(90,0,o),
(200,0,cs),
(310,0,o),
(350,70,o),
(350,140,c),
(330,140,l),
(330,80,o),
(300,20,o),
(200,20,cs),
(100,20,o),
(70,80,o),
(70,140,c),
(50,140,l)
);
}
);
width = 400;
},
{
layerId = "5DCAC9C2-0545-46AC-AFFE-31028D6C40EF";
shapes = (
{
closed = 1;
nodes = (
(50,60,o),
(130,0,o),
(240,0,cs),
(350,0,o),
(420,60,o),
(420,200,c),
(320,200,l),
(320,120,o),
(290,100,o),
(240,100,cs),
(190,100,o),
(150,120,o),
(150,200,c),
(50,200,l)
);
}
);
width = 470;
}
);
},
{
export = 0;
glyphname = "common-hook4";
lastChange = "2023-05-01 10:38:05 +0000";
layers = (
{
layerId = m01;
shapes = (
{
closed = 1;
nodes = (
(50,40,o),
(90,0,o),
(150,0,cs),
(210,0,o),
(250,40,o),
(250,100,c),
(230,100,l),
(230,50,o),
(200,20,o),
(150,20,cs),
(100,20,o),
(70,50,o),
(70,100,c),
(50,100,l)
);
}
);
width = 300;
},
{
layerId = "5DCAC9C2-0545-46AC-AFFE-31028D6C40EF";
shapes = (
{
closed = 1;
nodes = (
(50,60,o),
(100,0,o),
(190,0,cs),
(280,0,o),
(330,60,o),
(330,140,c),
(230,140,l),
(230,120,o),
(220,100,o),
(190,100,cs),
(160,100,o),
(150,120,o),
(150,140,c),
(50,140,l)
);
}
);
width = 380;
}
);
},
{
export = 0;
glyphname = "common-loop";
lastChange = "2023-05-13 09:27:12 +0000";
layers = (
{
layerId = m01;
shapes = (
{
closed = 1;
nodes = (
(350,430,o),
(240,480,o),
(70,480,c),
(50,480,l),
(50,460,l),
(70,460,l),
(230,460,o),
(330,420,o),
(330,280,cs),
(330,181,o),
(280,130,o),
(200,130,cs),
(130,130,o),
(70,171,o),
(70,260,c),
(50,260,l),
(50,156,o),
(120,110,o),
(200,110,cs),
(290,110,o),
(350,165,o),
(350,280,cs)
);
}
);
width = 400;
},
{
layerId = "5DCAC9C2-0545-46AC-AFFE-31028D6C40EF";
shapes = (
{
closed = 1;
nodes = (
(390,430,o),
(290,480,o),
(100,480,c),
(50,480,l),
(50,380,l),
(100,380,l),
(230,380,o),
(290,350,o),
(290,280,cs),
(290,220,o),
(260,200,o),
(220,200,cs),
(180,200,o),
(150,220,o),
(150,260,c),
(50,260,l),
(50,153,o),
(130,100,o),
(220,100,cs),
(300,100,o),
(390,157,o),
(390,280,cs)
);
}
);
width = 440;
}
);
},
{
export = 0;
glyphname = "common-stand";
lastChange = "2023-05-01 10:38:05 +0000";
layers = (
{
layerId = m01;
shapes = (
{
closed = 1;
nodes = (
(550,420,l),
(550,700,l),
(270,700,l),
(270,680,l),
(530,680,l),
(530,420,l)
);
},
{
ref = "common-arc3";
}
);
width = 600;
},
{
layerId = "5DCAC9C2-0545-46AC-AFFE-31028D6C40EF";
shapes = (
{
closed = 1;
nodes = (
(640,420,l),
(640,700,l),
(310,700,l),
(310,600,l),
(540,600,l),
(540,420,l)
);
},
{
ref = "common-arc3";
}
);
width = 690;
}
);
},
{
export = 0;
glyphname = "serif-bottom";
lastChange = "2023-05-08 00:09:53 +0000";
layers = (
{
layerId = "5DCAC9C2-0545-46AC-AFFE-31028D6C40EF";
shapes = (
{
closed = 1;
nodes = (
(-80,0,l),
(80,0,l),
(80,50,l),
(-80,50,l)
);
}
);
width = 0;
},
{
layerId = m01;
shapes = (
{
closed = 1;
nodes = (
(-40,0,l),
(40,0,l),
(40,20,l),
(-40,20,l)
);
}
);
width = 0;
}
);
},
{
export = 0;
glyphname = "serif-top";
lastChange = "2023-05-08 00:09:55 +0000";
layers = (
{
layerId = "5DCAC9C2-0545-46AC-AFFE-31028D6C40EF";
shapes = (
{
closed = 1;
nodes = (
(-80,-50,l),
(80,-50,l),
(80,0,l),
(-80,0,l)
);
}
